<?xml version="1.0" standalone="no"?>
<!DOCTYPE svg PUBLIC "-//W3C//DTD SVG 1.1//EN" "http://www.w3.org/Graphics/SVG/1.1/DTD/svg11.dtd">
<svg xmlns="http://www.w3.org/2000/svg">
<metadata>Copyright (C) 2014 by original authors @ fontello.com</metadata>
<defs>
<font id="fontello" horiz-adv-x="1000" >
<font-face font-family="fontello" font-weight="400" font-stretch="normal" units-per-em="1000" ascent="850" descent="-150" />
<missing-glyph horiz-adv-x="1000" />
<glyph glyph-name="uniF100" unicode="&#xe872;" d="m418 342q-10-11-25-11-10 0-18 3-19 10-33 32t-14 43q0 17 10 29t25 12q8 0 18-4 19-8 33-30t14-44q0-18-10-30z m-103-72q-10-12-24-12-10 0-18 4-19 10-31 30t-11 42q0 41 31 41 8 0 17-3 18-10 32-32t13-43q0-17-9-27z m-98-70q-8-12-22-12-9 0-19 6-16 8-28 29t-13 43q0 37 31 37 8 0 18-4 17-8 29-29t12-43q0-18-8-27z m598 19q-10-4-20-4-31 0-31 39 0 22 12 42t31 31q9 4 17 4 32 0 32-40 0-21-12-42t-29-30z m-120 84q-9-4-19-4-14 0-24 11t-9 28q0 24 13 45t34 30q7 3 17 3 14 0 24-10t9-29q0-23-13-44t-32-30z m-138 358q-20-6-45-6t-43 6q-22 7-22 22t22 23q43 17 86 1 23-9 23-23t-21-23z m-518-543l481-231 441 231v578l-461 115-461-115v-578z m461-178l-420 203v509l420-134v-578z m39 3v576l381 132v-508z m-405 735l366 92 369-93-351-122z" horiz-adv-x="1000" />
<glyph glyph-name="ok-1" unicode="&#xe927;" d="m1179 778q-250-222-600-750l-115-179q-144 180-464 500l107 107 286-250q150 150 279 272t206 187 131 111 77 59l21 14q4 0 11-2t26-19 35-50z" horiz-adv-x="1179" />
<glyph glyph-name="uniF102" unicode="&#xe874;" d="m975 336l11 14-11 14q-10 9-25 26t-65 60-104 75-130 58-151 27-151-27-130-58-104-75-65-60-25-26l-11-14 11-14q10-9 25-26t65-60 104-75 130-58 151-27 151 27 130 58 104 75 65 60 25 26z m-41 14q-28-27-63-58t-94-70-131-66-146-27-147 28-134 68-93 70-60 55q28 27 63 58t94 70 132 66 145 27 148-28 133-68 93-70 60-55z m-256 221l-30-28q51-56 51-132 0-84-58-143t-141-59-141 59-58 143q0 76 51 132l-30 28q-62-69-62-160 0-100 70-170t170-71 170 71 70 170q0 91-62 160z m-238-160q0 33 13 45t47 13 47-13 14-45-14-47-47-14-47 14-13 47z m-40 0q0-47 27-74t73-26 73 26 27 74-27 73-73 26-73-26-27-73z" horiz-adv-x="1000" />
<glyph glyph-name="uniF104" unicode="&#xe876;" d="m412 112q16-14 39-18l-2 94q-19 4-35 10t-25 12-15 18-5 26 7 30 18 23 25 16 30 6v23h22v-23q31-4 51-22t27-47h-33q-8 33-45 39v-86l23-6q8-1 19-5t20-12 17-20 7-27q0-18-6-31t-18-23-27-14-33-8v-29h-22v29q-39 4-62 24t-28 58h34q2-24 17-37z m80-14q10 2 17 8t10 14 3 19-4 18-10 10-16 9-21 6l2-88z m-74 191q-14-11-14-31 0-10 4-15t10-11 14-7q9-4 17-6v82q-17-2-31-12z m141 211l4-11 11-4q108-31 192-127t84-199q0-125-79-170t-300-45-300 44-79 171q0 97 79 197t171 121l14 2 1 16q2 15 0 32t-3 29-8 27l-10 25t-12 20-12 18-12 15-11 11-9 8l-5 4q-9 10-13 18 15 5 41 5 27 0 40 1t34 9 33 26q22 29 34 28t46-36q20-18 41-20t51 6 37 10q-4-10-15-29-69-108-45-202z m37 20q-2 23-3 38t3 32 7 28 9 22 10 19 9 12 6 9q6 8 11 18t11 29-3 31-37 12q-21 0-46-6t-32-7-21 7q-82 82-141 2-14-19-76-19-47 0-65-17t-12-37 22-36q70-71 70-145-105-33-186-139t-81-214q0-147 96-201t324-53 324 53 96 201q0 117-90 220t-205 141z m-334 197l-35-19q37-63 84-84t84 11q3 4 11 11t10 9 7 6 7 3 5-1 6-4l8-8t10-12q27-25 56-21t51 25q8 6 38 28t40 37 6 37l-39-6q0-4-5-9t-26-22-39-35q-35-30-51-8-23 27-46 32t-39-4-38-28q-11-6-25-8t-36 16-44 54z m86-203l-22-35q6-4 15-8t37-12 58-9 71 6 81 31q6 4 39 24t50 29 50 8 64-16l20 35q-34 17-66 22t-60-5-47-19-42-25-28-18q-54-31-110-33t-83 11z m224 10l14-37q113 43 180-30l29 26q-35 39-86 51t-80 6-57-16z" horiz-adv-x="1000" />
<glyph glyph-name="uniF105" unicode="&#xe878;" d="m945 549l-445-443-445 443 43 43 402-404 402 404z" horiz-adv-x="1000" />
<glyph glyph-name="uniF106" unicode="&#xe881;" d="m440 442q0-24-15-37t-36-14q-30 0-39 10 19-49 29-70 2-2-19-3t-41 0-18 3l29 70q-12-10-39-10-21 0-36 14t-15 37 26 56 49 51l25 22q12-10 28-24t44-48 28-57z m-440 328v-680q0-33 23-56t57-24h520q33 0 56 24t24 56v680q0 33-24 57t-56 23h-520q-33 0-57-23t-23-57z m39 0q0 18 12 29t29 12h520q17 0 29-12t12-29v-680q0-17-12-29t-29-12h-520q-17 0-29 12t-12 29v680z m481-2q2 2 3 2h14q4 0 4-2l55-156q0-2-2-2h-16q-2 0-4 2l-11 35h-65l-12-35q-2-2-4-2h-15q-4 0-2 2z m35-102l-24 73h-2l-25-73h51z m-395-574q0-2-2-2h-15q-2 0-4 2l-55 156q0 2 2 2h16q4 0 4-2l11-35h65l13 35q0 2 2 2h18q2 0 0-2z m-35 102l25-72 26 72h-51z m541 545l-12-39 278-86q15-4 23-19t2-30l-201-651q-6-15-21-23t-30-2l-514 160-11-39 513-160q32-10 61 6t39 47l203 648q10 33-6 63t-47 39z m176-141q2 2 4 0l15-4q2 0 2-4l6-164q0-2-2-2l-15 6q-4 0-4 2v37l-63 20-21-30q-2-2-4-2l-16 6q-2 0 0 2z m4-107l-2 76-47-61z" horiz-adv-x="1000" />
<glyph glyph-name="uniF107" unicode="&#xe8a7;" d="m119 571v-41h762v41h-762z m0-182v-78h762v78h-762z m0-219v-121h762v121h-762z" horiz-adv-x="1000" />
<glyph glyph-name="uniF108" unicode="&#xe8a8;" d="m959 370q0 166-135 282t-324 116-324-116-135-282q0-96 48-178t132-139q-8-66-57-133l-19-29h35q117 0 207 92 56-12 113-12 190 0 324 116t135 283z m-37 0q0-149-123-255t-299-107q-59 0-115 14l-12 4-8-10-20-21t-53-35-77-28q43 76 43 131v10l-8 6q-80 50-126 127t-46 164q0 148 123 254t299 107 299-107 123-254z" horiz-adv-x="1000" />
<glyph glyph-name="uniF109" unicode="&#xe8b5;" d="m279 610q0 31 25 55t53 25h291q30 0 51-22t22-50v-655q0-31-22-53t-51-21h-289q-25 0-52 23t-28 57v641z m-39 0v-641q0-51 39-85t80-34h289q45 0 79 33t33 80v655q0 47-33 80t-79 33h-291q-46 0-82-37t-35-84z m119-600v580h282v-580h-282z m-39-41h360v660h-360v-660z m151-39q0 29 29 29t29-29-29-29-29 29z" horiz-adv-x="1000" />
<glyph glyph-name="uniF10A" unicode="&#xe8cf;" d="m957 739l-35 19-258-486q-49 0-99 42t-51 77l240 346-33 23-244-353-2-4q-12-67 66-124t139-46l10 2z m-461-395l-2 39q-80-4-134-37t-77-80-44-105-37-111-54-97-95-64l-116-39h124q132 0 223 9t170 34 124 70 70 116 26 171h-39q0-107-26-175t-87-109-150-56-227-19q50 39 83 101t46 118 35 109 65 87 122 38z" horiz-adv-x="1000" />
<glyph glyph-name="uniF10B" unicode="&#xe91b;" d="m920-31h-39v-59q0-9-6-15t-16-6h-80q-7 0-13 6t-6 15v40h-39v-40q0-25 17-42t41-18h80q26 0 43 18t18 42v59z m-641-19h-39v-40q0-9-6-15t-13-6h-80q-10 0-16 6t-6 15v59h-39v-59q0-25 18-42t43-18h80q23 0 41 18t17 42v40z m621 720v-640q0-36-23-48t-76-13h-602q-52 0-76 13t-23 48v660q0 72 27 97t113 24h561q60 0 80-30t19-111z m40 0q0 88-30 134t-109 46h-561q-95 0-137-37t-42-123v-660q0-100 138-100h602q139 0 139 100v640z m-219-570q0 27 10 39t40 12 39-12 10-39-10-39-39-12-40 12-10 39z m-41 0q0-43 24-66t67-24 65 24 23 66-23 66-65 24-67-24-24-66z m-500 0q0 27 10 39t40 12 39-12 10-39-10-39-39-12-40 12-10 39z m-39 0q0-43 23-66t66-24 66 24 24 66-24 66-66 24-66-24-23-66z m779 510v-39h41v-160h-41v-41h41q16 0 27 11t12 30v160q0 15-12 27t-27 12h-41z m-840-39v39h-41q-16 0-27-12t-12-27v-160q0-18 12-30t27-11h41v41h-41v160h41z m680 138v41q0 16-12 28t-27 12h-420q-18 0-29-12t-12-28v-41q0-15 12-27t29-12h420q15 0 27 12t12 27z m-39 0h-420v41h420v-41z m58-457q28 0 54 21t26 58v240q0 37-21 58t-59 22h-558q-37 0-59-22t-21-58v-240q0-38 21-59t59-22z m0 39l-558-1q-24 0-32 8t-9 33v240q0 21 9 30t32 9h558q24 0 33-9t8-30v-240q0-18-13-29t-28-11z" horiz-adv-x="1000" />
<glyph glyph-name="uniF10D" unicode="&#xe928;" d="m1000 491h-252l-19 80h-459l-20-102h-250v141h1000v-119z m-734 64l-39 6-71-377q-15-62 18-108t101-46h450q68 0 101 45t18 109l-71 377-39-6 71-379q11-51-9-78t-71-27h-450q-50 0-71 28t-9 77z m431-492h-168v508h106z" horiz-adv-x="1000" />
<glyph glyph-name="uniF10E" unicode="&#xe929;" d="m455 706l-8 41q-93-18-150-87t-57-169q0-90-16-152t-40-90-47-45-40-35-17-40q0-39 34-64t100-36 130-15 156-4 156 4 130 15 100 36 34 64q0 24-17 40t-40 35-47 45-40 90-16 152q0 99-58 170t-153 86l-6-40q80-13 129-72t49-144q0-90 16-160t40-104 47-57 40-30 17-11q0-37-103-58t-278-22-278 22-103 58q0 2 17 11t40 30 47 57 40 104 16 160q0 86 48 143t128 72z m6 64q0 23 8 32t31 9 31-9 8-32-8-31-31-8-31 8-8 31z m-41 0q0-37 21-59t59-21 59 21 21 59-21 59-59 21-59-21-21-59z m180-732l-34-24q14-20 14-45 0-33-23-57t-57-23-57 23-23 57q0 24 12 43l-34 22q-17-30-17-65 0-49 35-84t84-35 84 35 35 84q0 37-19 69z" horiz-adv-x="1000" />
<glyph glyph-name="uniF110" unicode="&#xe92b;" d="m600 389z m19 0h-39v-443l-160 95v348h-39v-371l238-143v514z m0 0h-39v-443l-160 95v348h-39v-371l238-143v514z m301 342h20v80h-879v-90l330-351h218l325 347z m0 0q-6 4-25-10t-49-41-62-59-65-70-60-65-46-51-21-24h-184l-308 328v31h800q0-6 10-16t10-23z" horiz-adv-x="1000" />
<glyph glyph-name="uniF111" unicode="&#xe92c;" d="m900 430h-41v-541h-718v541h-41v-580h800v580z m-541-561h41v401h200v-401h41v442h-282v-442z m340 881h121v-185l-41 41v103h-39v-60l-41 41v60z m-691-406l29-27 463 482 463-482 29 27-492 514z" horiz-adv-x="1000" />
<glyph glyph-name="uniF112" unicode="&#xe92d;" d="m820 709h-41v-160h-160v-39h201v199z m39-359h-39q0-133-93-227t-227-93-227 93-93 227 93 227 227 93q143 0 238-105 18-20 32-43l33 23q-16 24-35 45-108 119-268 119-148 0-254-105t-105-254 105-254 254-105 254 105 105 254z" horiz-adv-x="1000" />
<glyph glyph-name="uniF114" unicode="&#xe92f;" d="m80 10v-41h360 21 20v124q9-1 19-1 10 0 20 1v-124h19 22 359v41h-359v87q110 17 193 101 105 105 105 254t-105 254-254 105-254-105-105-254 105-254q83-84 194-101v-87h-360z m0-121v-39h840v39h-840z m104 561q0 131 93 224t225 94 225-94 93-224-93-225-225-94-225 94-93 225z m254 0q0 25 18 44t44 18q8 0 14-1l185 140q-95-130-138-187 2-7 2-14 0-26-19-44t-44-19-44 19-18 44z" horiz-adv-x="1000" />
<glyph glyph-name="uniF115" unicode="&#xe930;" d="m580 411v39h-199v201h-41v-240h240z m-580-561h619v588l-250 252h-369v-840z m580 39h-541v762h313l228-229v-533z m381 682v39h-201v201h-39v-240h240z m-213 279l252-252v-588h-340v39h301v533l-229 229h-312v-121l-39 41v119h367z" horiz-adv-x="1000" />
<glyph glyph-name="uniF116" unicode="&#xe931;" d="m986-62l-13 37q-14-4-30-4-60 0-99 29l-12 10-12-10q-39-29-99-29t-98 29l-12 10-13-10q-37-29-98-29t-98 29l-13 10-12-10q-37-29-98-29t-99 29l-12 10-12-10q-39-29-99-29-16 0-34 2l-5-39q19-2 39-2 62 0 111 29 47-29 110-29t111 29q49-29 111-29t111 29q47-29 111-29t110 29q49-29 111-29 24 0 43 6z m0-80l-13 39q-14-6-30-6-60 0-99 29l-12 10-12-10q-39-29-99-29t-98 29l-12 10-13-10q-37-29-98-29t-98 29l-13 10-12-10q-37-29-98-29t-99 29l-12 10-12-10q-39-29-99-29-16 0-34 2l-5-39q19-2 39-2 62 0 111 29 47-29 110-29t111 29q49-29 111-29t111 29q47-29 111-29t110 29q49-29 111-29 24 0 43 6z m-255 117l23-31q4 2 31 22l35 27t33 26 35 30 30 30 30 34 23 33 19 36q14 24 3 46t-46 22h-886q-28 0-44-18t-17-42q0-61 55-130t109-95l18 35q-43 22-93 83t-50 107q0 19 22 19h886 12q-2-5-6-11-15-39-59-85t-72-68-91-70z m-192 705q0 37 17 54t54 16 54-16 16-54-16-54-54-16-54 16-17 54z m-39 0q0-53 29-81t81-28 81 28 30 81-30 81-81 29-81-29-29-81z m-33-433l33-22 92 147q170-67 183-75 14-11 48-7t50 35q14 29 0 55t-39 38q-293 139-328 157-14 0-34-1t-62-15-56-37l-172-281 33-22 174 281q41 71 99 38v0q315-149 328-157 32-13 20-41-10-21-45-6-14 6-199 82l-16 6z m-65-262l28-30 371 344-28 30z" horiz-adv-x="1000" />
<glyph glyph-name="uniF117" unicode="&#xe932;" d="m865 381l30-27q58 57 64 139l2 25-25-4q-18-4-36-4-74 0-127 53t-52 127v41l-24-6q-56-10-99-47t-63-90l37-13q30 74 108 105 6-86 68-148t152-63q8 0 16 2-14-55-51-90z m-605 328h-39v-80h39v80z m-61-19v-39h80v39h-80z m-99-221h-39v-39h39v39z m-39 0v-39h39v39h-39z m660-119q56 0 97-41t41-99-41-98-97-41h-420q-43 0-72 29t-30 70 30 71 72 29h6 23l-6 23q-4 20-4 38 0 66 47 113t114 47q58 0 103-39t55-98l4-25 23 9q25 12 55 12z m0 39q-22 0-49-6-20 67-71 107t-120 40q-84 0-143-59t-59-140q0-8 2-22-54-10-88-48t-33-91q0-58 41-99t100-41h420q74 0 127 52t52 127-52 127-127 53z" horiz-adv-x="1000" />
<glyph glyph-name="uniF118" unicode="&#xe933;" d="m326 665l28-30 146 147 147-147 27 30-174 173z m155-456h39v594h-39v-594z m-141 282v39h-199v-680h718v680h-199v-39h160v-602h-640v602h160z" horiz-adv-x="1000" />
<glyph glyph-name="uniF119" unicode="&#xe934;" d="m502 727l6-41q25 4 53 4 166 0 283-117t117-283-117-284-283-117-284 117-117 284q0 29 4 56l-39 6q-6-31-6-62 0-182 129-311t312-129 311 129 129 311-129 312-310 129q-30 0-59-4z m-502-338h461v461h-21q-182 0-311-129t-129-310v-22z m420 41h-379q8 158 117 265t262 114v-379z" horiz-adv-x="1000" />
<glyph glyph-name="uniF11A" unicode="&#xe935;" d="m920 411v-121h-61v-100q0-25-17-43t-41-18h-641q-25 0-43 18t-17 43v320q0 26 17 43t43 18h641q23 0 41-18t17-43v-99h61z m41 39h-61v60q0 41-29 71t-70 29h-641q-41 0-70-29t-29-71v-320q0-41 29-70t70-30h641q41 0 70 30t29 70v60h61v200z m-781 60h-39v-320h39v320z m80 0h-39v-320h39v320z" horiz-adv-x="1000" />
<glyph glyph-name="uniF11B" unicode="&#xe936;" d="m600 202v168h-20q-373 0-519-231 13 55 35 103t62 103 95 95 139 64 188 26h20v168l328-248z m-39-80l431 328-431 328v-207q-120-4-214-39t-153-88-98-116-59-127-27-116-10-83v-33h39q2 6 4 19t15 50 32 70 59 74 92 71 135 52 185 26v-209z" horiz-adv-x="1000" />
<glyph glyph-name="uniF11C" unicode="&#xe937;" d="m121 446q0-123 86-209t209-86 209 86 86 209-86 209-209 86-209-86-86-209z m-41 0q0 138 99 237t237 99 237-99 99-237-99-238-237-98-237 98-99 238z m594-213l-57-57 264-264 57 57z m-414 236v-39h320v39h-320z" horiz-adv-x="1000" />
<glyph glyph-name="uniF11D" unicode="&#xe938;" d="m481 651h39v158q187-10 314-142t127-317q0-191-135-326t-326-135-326 135-135 326 135 324l-27 30q-147-147-147-354t147-354 353-146 354 146 146 354-146 354-354 146h-19v-199z m62-344q-18-17-43-17t-43 17q-10 12-61 85t-99 142l-47 66q270-184 293-207 18-18 18-43t-18-43z" horiz-adv-x="1000" />
<glyph glyph-name="uniF11E" unicode="&#xe939;" d="m760 470q0 21 20 21t21-21-21-20-20 20z m-119 0q0 21 19 21t20-21-20-20-19 20z m-61 60q0 19 20 19t19-19-19-20-20 20z m-60-60q0 21 20 21t21-21-21-20-20 20z m-120 0q0 21 20 21t20-21-20-20-20 20z m360 120q0 20 20 20t21-20-21-19-20 19z m-119 0q0 20 19 20t20-20-20-19-19 19z m58-60q0 19 21 19t20-19-20-20-21 20z m-666-160l848 412v-412h-848z m174-80h633v-307z m674 41h-848l848-413v413z m-420 203l-141-69q-2-15-20-15-5 0-9 1l-55-27q4-4 4-13h100q0 19 20 19t21-19h80q0 19 20 19t19-19h80q1 19 20 19t19-19h80q1 19 21 19t20-19h80q1 19 20 19v80q-20 0-20 20t20 19v80q-20 0-20 21t20 20v47l-106-51q6-5 6-16 0-21-20-21-20 0-21 20l-140-68q-4-10-19-10-1 0-2 0l-48-23q10-4 10-18 0-20-19-20t-20 20q0 2 0 4z" horiz-adv-x="1000" />
<glyph glyph-name="uniF11F" unicode="&#xe93a;" d="m260 590q99 100 226 150t243 50q119 0 164-47 31-32 41-103t-3-160-63-190-128-180q-99-100-226-150t-242-50q-118 0-165 47-31 32-41 103t3 160 63 191 128 179z m-28 28q-109-108-165-253t-49-264 60-173q59-59 194-59 123 0 257 54t241 159q107 108 163 253t49 264-60 173q-59 59-193 59-123 0-257-54t-240-159z m682 119l-27 27-182-180 29-29z m-619-621l-29 29-180-182 27-27z m379 381l-27 27-321-320 28-28z m2-151l29 27-182 182-27-29z m-100-99l28 27-180 180-27-28z m-99-102l27 29-180 180-29-27z" horiz-adv-x="1000" />
<glyph glyph-name="uniF120" unicode="&#xe93b;" d="m449 401l303 201-201-303q-7 7-14 14l-222-148 148 222q-7 7-14 14z m-13 13l-256-384 384 256 256 384z m-436-64q0 207 147 354t353 146 354-146 146-354-146-354-354-146-353 146-147 354z m537-37l-74 74 222 148z m-495 57h18v-40h-19q7-178 135-306 127-128 304-135v21h40v-21q177 7 304 135 129 128 135 306h-19v40h19q-8 175-135 302-127 128-304 135v-17h-40v17q-177-7-304-135-127-127-134-302z" horiz-adv-x="1000" />
<glyph glyph-name="uniF121" unicode="&#xe93c;" d="m39 110v560h922v-560h-922z m-39-39h1000v638h-1000v-638z m779-80v39h-558v-39h558z" horiz-adv-x="1000" />
<glyph glyph-name="uniF122" unicode="&#xe93d;" d="m43 350q0-189 134-323t323-134 323 134 134 323-134 323-323 134-323-134-134-323z m-39 0q0 205 145 351t351 145 351-145 145-351-145-351-351-145-351 145-145 351z m471 176q-6 0-6 6v52q0 8 6 8h48q8 0 8-8v-52q0-6-8-6h-48z m2-422q-6 0-6 8v328q0 8 6 8h46q6 0 6-8v-328q0-8-6-8h-46z" horiz-adv-x="1000" />
<glyph glyph-name="uniF123" unicode="&#xe93e;" d="m920 411v-121h-61v-100q0-25-17-43t-41-18h-641q-25 0-43 18t-17 43v320q0 26 17 43t43 18h641q23 0 41-18t17-43v-99h61z m41 39h-61v60q0 41-29 71t-70 29h-641q-41 0-70-29t-29-71v-320q0-41 29-70t70-30h641q41 0 70 30t29 70v60h61v200z m-781 60h-39v-320h39v320z m80 0h-39v-320h39v320z m80 0h-39v-320h39v320z m80 0h-39v-320h39v320z m80 0h-39v-320h39v320z m80 0h-41v-320h41v320z m80 0h-41v-320h41v320z m80 0h-41v-320h41v320z m80 0h-41v-320h41v320z" horiz-adv-x="1000" />
<glyph glyph-name="uniF124" unicode="&#xe93f;" d="m602 110q0-37 20-58t58-20 58 20 22 58-22 58-58 22-58-22-20-58z m37 0q0 23 9 32t32 9 32-9 9-32-9-32-32-9-32 9-9 32z m-399 0q0-37 22-58t58-20 58 20 20 58-20 58-58 22-58-22-22-58z m39 0q0 23 9 32t32 9 33-9 8-32-8-32-33-9-32 9-9 32z m401 660h41q0 80-221 80t-221-80h41q0 8 16 17t60 16q3 1 6 1l16-99q-93-9-161-42-97-47-97-114v-465q0-56 41-95 27-26 61-35l-82-69 25-31 113 96h364l113-96 25 31-81 69q33 9 60 35 41 39 41 95v465q0 67-97 114-68 33-161 42l16 99q3 0 7-1 43-8 59-16t16-17z m-401-297q0 18 22 18h80 238 80q22 0 22-18v-166q0-17-22-17h-398q-22 0-22 17v166z m-39 0v-166q0-25 18-41t43-16h398q26 0 43 16t18 41v166q0 24-18 40t-43 17h-39v41q0 15-12 27t-29 12h-238q-18 0-29-12t-12-27v-41h-39q-26 0-43-17t-18-40z m-41 76q0 24 32 50t103 49 166 22 166-22 104-49 31-50v-465q0-39-29-66t-73-27h-398q-43 0-72 27t-30 66v465z m359 260l-16-101q-21 1-42 1-21 0-42-1l-16 101q27 2 58 2t58-2z m-179-279v41h2 238 2v-41h-2-238-2z" horiz-adv-x="1000" />
<glyph glyph-name="uniF125" unicode="&#xe940;" d="m760 630q40 0 40-60v-400q0-22-3-46-3-24-17-61-14-37-37-65-24-27-70-48-46-20-108-20-102 0-151 27-49 27-93 87-22 29-57 90-34 60-58 106l-24 46-1 1 0 0q-11 17-8 36 4 17 18 26 13 9 32 4 19-5 30-22l107-140v481q0 17 12 28 12 10 28 10 16 0 28-10 12-11 12-30v-260q6-17 20-17t20 17v260 60q0 16 11 28 11 13 29 12 38-1 40-33 0-8 0-47l0-127q0-1 0-153 0-21 22-21 18 0 18 21v259q1 11 1 20h-1v1q0 40 40 40 21 0 31-12 9-12 9-48l0-278q2-19 21-19 18 1 19 17v180q0 60 40 60z m-319 109q-23 11-41 11-30 0-55-21-25-21-25-57v-363l-34 45q-19 30-53 38-33 9-63-9-30-18-35-54-6-35 9-58 93-181 145-251 47-64 107-97 59-33 169-33 72 0 126 24 54 25 81 58 27 33 44 76 16 43 20 71 4 27 4 51v400q0 100-80 100-23 0-40-9v9q0 46-20 73-21 27-60 27-8 0-37-7-1 0-1-1l-8-2q-20 50-74 50-31 0-52-19-21-19-26-46z" horiz-adv-x="1000" />
<glyph glyph-name="uniF126" unicode="&#xe941;" d="m121 118q10-100 22-153 4-21 19-38t41-17h641q35 0 55 21t21 54v517q0 51-55 69h-4-4q-152-16-205-22-46-4-13 51 35 55 35 90 0 58-42 100t-101 41-100-41-42-100q0-43 33-90 21-35 17-44t-29-7l-205 22q-58-33-62-67-10-39-22-207l-2-9 2-6q14-71 115 2 37 27 71 27 43 0 73-30t30-72-30-70-73-29q-35 0-73 29-87 68-111 12-6-16-2-33z m760 384v-517q0-35-37-35h-641q-15 0-21 25-12 51-22 148v0 12q16 0 49-27 49-37 98-37 58 0 100 41t42 98-42 99-100 41q-45 0-94-35-29-20-53-20 6 77 12 128t8 64l2 11v2q2 22 6 28t11 4h2q168-20 205-22 49-4 66 30t-17 82q-27 39-27 68 0 41 30 70t73 30 74-30 30-70q0-18-5-27t-24-41q-30-47-13-82t63-30q51 6 201 22 24-10 24-30z" horiz-adv-x="1000" />
<glyph glyph-name="uniF128" unicode="&#xe943;" d="m55 151l445 443 445-443-43-43-402 404-402-404z" horiz-adv-x="1000" />
<glyph glyph-name="uniF129" unicode="&#xe944;" d="m221 709h-41v-199h201v39h-160v160z m599-359h39q0 148-105 254t-254 105q-160 0-268-119-19-21-35-45l34-23q13 23 31 43 95 105 238 105 133 0 227-93t93-227z m-320-340v-41q22 0 43 4l-6 39q-17-2-37-2z m121 24l14-38q80 32 137 96t78 149l-39 9q-20-74-71-131t-119-85z m197 257l39-3q2 21 2 43h-39q0-20-2-40z m-638 40h-39v-22l39 2v20z m17-102l-39-14q32-92 105-156t169-82l8 39q-86 16-151 73t-92 140z m284-219l-2-39q9-2 21-2v41h-19z" horiz-adv-x="1000" />
<glyph glyph-name="uniF12A" unicode="&#xe945;" d="m0 350q0 39 40 39t40-39-40-39-40 39z m260 120q0 40 40 40t40-40-40-40-40 40z m201 160q0 40 39 40t39-40-39-40-39 40z m199-121q0 40 40 40t40-40-40-40-40 40z m260 240q0 41 40 41t40-41-40-40-40 40z m-920-679q0 40 40 40t40-40-40-40-40 40z m260-39q0 40 40 40t40-40-40-40-40 40z m201 160q0 40 39 40t39-40-39-40-39 40z m199-201q0 40 40 40t40-40-40-40-40 40z m260 240q0 40 40 40t40-40-40-40-40 40z m-889 138l18-36 262 122 191 152 201-121 270 250-26 29-250-228-199 119-209-168z m12-278l-6-39 268-43 193 155 201-202 274 254-26 30-246-227-199 199-207-166z" horiz-adv-x="1000" />
<glyph glyph-name="uniF12B" unicode="&#xe946;" d="m39-70q0-37 22-59t58-21 59 21q15 16 20 39h24q5-23 20-39 22-21 59-21t58 21 22 59q0 22-8 39h254q-8-17-8-39 0-37 22-59t58-21 59 21q15 16 20 39h25q4-23 19-39 22-21 59-21t59 21 21 59q0 23-8 40 17 3 30 16 17 16 17 40v273q0 55-38 93t-93 38h-738q-55 0-93-38t-38-93v-273q0-24 17-40 13-13 30-16-8-17-8-40z m41 0q0 23 9 31t31 8 31-8q5-4 7-11h-39v-40h39q-2-8-7-12-8-9-31-9t-31 9-9 32z m580 0q0 23 9 31t31 8 31-8q5-4 7-11h-39v-40h39q-2-8-7-12-8-9-31-9t-31 9-9 32z m209 459q37 0 65-26t27-64v-273q0-16-18-16h-62-182-398-182-62q-18 0-18 16v273q0 37 27 64t65 26h738z m-671-439q-2 10-7 19h38q-5-9-7-19h-24z m64 0q2 7 7 11 8 8 31 8t31-8 9-31-9-32-31-9-31 9q-5 4-7 12h39v40h-39z m516 0q-2 10-6 19h37q-5-9-6-19h-25z m64 0q2 7 7 11 8 8 31 8t31-8 9-31-9-32-31-9-31 9q-5 4-7 12h39v40h-39z m39 343v-107q0-16-16-16h-70q-16 0-16 16v107q0 18 16 18h70q16 0 16-18z m23-147q16 17 16 40v107q0 24-16 40t-39 17h-70q-23 0-39-17t-16-40v-107q0-23 16-40t39-17h70q24 0 39 17z m-244 147v-107q0-16-15-16h-71q-13 0-13 16v107q0 18 13 18h71q15 0 15-18z m24-147q15 17 15 40v107q0 24-15 40t-39 17h-71q-21 0-38-17t-16-40v-107q0-23 16-40t38-17h71q23 0 39 17z m-244 147v-107q0-16-14-16h-70q-16 0-16 16v107q0 18 16 18h70q14 0 14-18z m24-147q17 17 17 40v107q0 24-17 40t-38 17h-70q-24 0-40-17t-15-40v-107q0-23 15-40t40-17h70q21 0 38 17z m-243 147v-107q0-16-16-16h-70q-16 0-16 16v107q0 18 16 18h70q16 0 16-18z m23-147q16 17 16 40v107q0 24-16 40t-39 17h-70q-24 0-39-17t-16-40v-107q0-23 16-40t39-17h70q24 0 39 17z" horiz-adv-x="1000" />
<glyph glyph-name="uniF12C" unicode="&#xe947;" d="m8 450l432-328v209q101-4 184-26t135-52 92-71 59-74 32-70 15-50 4-19h39v33t-10 83-27 118-59 124-98 118-153 86-213 40v207z m392-248l-328 248 328 248v-168h20q103 0 188-26t139-64 95-95 62-103 36-103q-147 231-520 231h-20v-168z" horiz-adv-x="1000" />
<glyph glyph-name="uniF12D" unicode="&#xe948;" d="m4 350q0 205 145 351t351 145 351-145 145-351-145-351-351-145-351 145-145 351z m37 2q0-189 135-324t324-135 324 135 135 324-135 324-324 135-324-135-135-324z m397-2q0 25 17 43 11 11 26 15v323h39v-324q11-4 21-14 18-18 18-43t-18-43-43-17q-14 0-26 5l-118-119-28 28 118 118q-6 12-6 28z" horiz-adv-x="1000" />
<glyph glyph-name="uniF12E" unicode="&#xe949;" d="m818 510q0 131-93 225t-225 94-225-94-93-225q0-80 31-176t76-172 90-144 76-102l31-37 14-15 14 15q11 14 32 39t73 101 93 147 73 168 33 176z m-35 0q0-80-35-177t-88-183-90-140-70-92q-35 41-72 94t-90 139-87 181-34 178q0 117 83 199t200 82 200-82 83-199z m-385-20q0 53 24 78t78 24 78-24 24-78-24-78-78-25-78 25-24 78z m-35 1q0-67 35-103t102-36 102 36 35 103-35 101-102 35-102-35-35-101z" horiz-adv-x="1000" />
<glyph glyph-name="uniF12F" unicode="&#xe94a;" d="m481 766h39v65h-39v-65z m-202-775h-39q0-59 41-100t99-41 99 41 41 100v398h-39v-398q0-43-30-73t-71-29-71 29-30 73z m-80 439q-76 0-136-47 23 157 144 252t293 96q174 0 296-96t142-258q-69 53-137 53-90 0-151-68-60 68-150 68t-150-68q-61 68-151 68z m0-41q86 0 133-70l18-26 17 26q47 70 133 70t133-70l17-26 18 26q47 70 133 70 35 0 71-17t54-38l19-17 36-39v53q0 193-140 316t-341 123-341-123-139-316v-67l37 55q6 8 15 19t47 32 80 19z" horiz-adv-x="1000" />
<glyph glyph-name="uniF130" unicode="&#xe94b;" d="m940 629q9 0 15-6t6-13v-641q0-8-6-14t-15-5h-879q-10 0-16 5t-6 14v641q0 8 6 13t16 6h879z m0 41h-879q-26 0-43-17t-18-43v-641q0-23 18-41t43-18h879q25 0 42 18t18 41v641q0 25-18 43t-42 17z m-901-359h-39q0-25 18-43t43-18h879q25 0 42 18t18 43h-39q0-10-6-16t-15-5h-879q-10 0-16 5t-6 16z m580 359h41v61q0 23-17 41t-43 18h-200q-25 0-43-18t-17-41v-61h41v61q0 8 6 14t13 5h200q7 0 13-5t6-14v-61z m-158-299q0 40 39 40t39-40-39-40-39 40z" horiz-adv-x="1000" />
<glyph glyph-name="uniF131" unicode="&#xe94c;" d="m859 790v-700q0-6-1-13t-8-29-21-36-42-29-66-14q-53 0-88 16t-50 38-18 38-4 29q0 45 32 73t128 27q47 0 63 14t17 46v336q0 22-6 28t-25 2q-22-6-118-27t-182-40-93-19q-18-4-18-35v-504q0-45-38-83t-122-39q-43 0-73 13t-43 33-18 38-4 38q0 45 35 71t103 26q63 0 82 15t20 48v539q0 31 27 37l494 102q2 0 10 1t18-9 9-31z" horiz-adv-x="1000" />
<glyph glyph-name="uniF132" unicode="&#xe94d;" d="m721 231h-481q-50 0-86 35t-35 84 35 84 86 35h20l27-6-4 28q-4 15-4 29 0 70 50 120t120 50q65 0 112-41t56-102l4-27 26 12q35 17 74 17 66 0 113-47t47-112-47-112-113-47z m0-41q82 0 140 58t59 142-59 142-140 58q-33 0-69-11-19 66-75 109t-128 43q-86 0-147-62t-62-149q0-10 6-12l2 2h-8q-66 0-113-47t-47-113 47-113 113-47h481z m-262-287l35 15-31 80-37-15z m-47 49l16-38 80 34-16 37z m-135 89l38 16-34 80-37-15z m-45 51l16-37 80 33-15 37z m426-90l37 16-33 80-37-16z m-45 49l14-37 80 33-16 37z" horiz-adv-x="1000" />
<glyph glyph-name="uniF133" unicode="&#xe94e;" d="m178 549h644l76-660h-796z m-35 41l-86-740h886l-86 740h-714z m517-121h39v160q0 84-58 143t-141 59-141-59-58-143v-160h39v160q0 67 47 114t113 47 113-47 47-114v-160z m-19 1q0 40 40 40t40-40-40-40-40 40z m-362 0q0 40 40 40t40-40-40-40-40 40z" horiz-adv-x="1000" />
<glyph glyph-name="uniF135" unicode="&#xe950;" d="m699 670q92 0 157-64t64-156q0-73-28-137t-82-118-100-91-115-83-95-66q-23 18-92 64t-114 82-101 91-84 120-29 138q0 91 65 156t156 64q117 0 181-99l18-24 18 24q64 99 181 99z m0 39q-58 0-112-26t-87-67q-78 93-199 93-110 0-186-76t-76-183q0-82 34-158t93-132 113-99 120-84 87-63l14-9 14 9q21 20 87 63t120 84 113 99 93 132 34 158q0 107-76 183t-186 76z" horiz-adv-x="1000" />
<glyph glyph-name="uniF136" unicode="&#xe951;" d="m671 378q-9-8-21-8h-300q-12 0-21 8t-9 22 9 21 21 9h300q12 0 21-9t9-21-9-22z m-321-47h300q30 0 50 20t21 49-21 49-50 20h-300q-30 0-50-20t-21-49 21-49 50-20z m550 218v-619h-800v619h800z m-839 0v-660h879v660h41v241h-961v-241h41z m879 41h-879v160h879v-160z" horiz-adv-x="1000" />
<glyph glyph-name="uniF137" unicode="&#xe952;" d="m641 170v-41h181q75 0 126 53t52 127q0 68-48 118t-110 58q2 6 2 12 0 109-77 185t-187 76q-76 0-139-40t-97-106q-39 23-76 23-57 0-96-38t-45-93q-61-23-94-71t-33-110q0-80 57-137t136-57h166v41h-166q-64 0-109 45t-45 108q0 52 32 93t81 55l14 4v20q0 43 30 72t72 29 70-29l21-24 12 30q24 64 81 105t128 41q92 0 157-65t66-157q0-12-2-28l-2-23h25q55-2 96-41t41-97-41-98-98-40h-181z m-28-154l-27 27-86-86-86 86-27-27 113-115z m-93 315h-39v-395h39v395z" horiz-adv-x="1000" />
<glyph glyph-name="uniF138" unicode="&#xe953;" d="m861 711l-306-715-137 272-271 137z m77 77l-885-381 336-168 168-336z m-540-510l30-30 459 461-28 28z" horiz-adv-x="1000" />
<glyph glyph-name="uniF139" unicode="&#xe954;" d="m39 129v602h922v-602h-922z m-39-39h1000v680h-1000v-680z m520 741h-39v-81h39v81z m0-721h-39v-160h39v160z m-6-74l-28 29-179-182 27-27z m0 29l-28-29 180-180 27 27z m-346 320l23-31 149 111 221-160 271 209-23 31-248-189-221 158z m352-55q0 40 40 40t40-40-40-40-40 40z m-219 160q0 40 40 40t40-40-40-40-40 40z m-160-119q0 40 40 40t40-40-40-40-40 40z m638 160q0 40 40 40t40-40-40-40-40 40z" horiz-adv-x="1000" />
<glyph glyph-name="uniF13A" unicode="&#xe955;" d="m180 389v-78h640v78h-640z" horiz-adv-x="1000" />
<glyph glyph-name="uniF13B" unicode="&#xe956;" d="m55 309l-18-35 750-408v-2q6-2 14-5t29-7 41-3 44 13 42 35l-33 23q-18-23-49-27t-47 0-23 8l-277 150q78 89 136 162 29 35 35 70t-8 59-26 40-28 27q-12 9-67 48l26 17q5-2 10-5l9 18q0-35 4-51 10-27 53-51t141-64q60-26 79 9t-29 73q-21 15-125 76 41 105 41 156 0 49-34 77t-75 35q-49 7-98-7t-84-41-63-55q-7-7-14-14l-188 111-22-35 183-108q0-1-1-2l-14-21q-35-43-30-88t23-74 44-45q16-12 52-35t48-32q14-10 15-16t-7-17l-115-146z m705 431q0-46 32-78t78-33 78 33 33 78-33 78-78 32-78-32-32-78z m41 1q0 29 20 49t49 21 49-21 21-49-21-50-49-21-49 21-20 50z m-310-669l-57 31q94 117 111 140 37 50-16 91-13 10-49 33t-52 34q-18 12-31 33t-18 54 21 65q6 6 16 19 2 2 5 5l137-80-58-40 23-15q77-53 88-65 84-64 22-138z m103 450l-146 86q3 3 5 6 28 29 58 51t72 35 81 7q29-3 53-23t23-49q0-21-11-60t-22-67l-12-29-5-16 13-9q113-67 135-82 14-12 19-22-11 0-29 8-51 21-91 42t-58 32-21 18q-4 7-4 27t2 33l2 16 6 45z" horiz-adv-x="1000" />
<glyph glyph-name="uniF13C" unicode="&#xe957;" d="m699 209q0-25-19-43v-56q0-16-12-28t-28-11-29 11-11 28v56q-20 18-20 43t18 43 42 18 42-18 17-43z m-340-279q-7 0-13 6t-6 14v439q0 10 6 16t13 6h561q8 0 14-6t6-16v-439q0-8-6-14t-14-6h-561z m0-41h561q25 0 43 18t18 43v439q0 26-18 43t-43 18h-61v121q0 90-64 154t-155 65-156-65-64-154v-121h-61q-23 0-41-18t-17-43v-439q0-26 17-43t41-18z m102 561v121q0 74 52 127t127 52 128-52 52-127v-121h-359z" horiz-adv-x="1000" />
<glyph glyph-name="uniF13D" unicode="&#xe958;" d="m488 30l276 320h-436l-160-320h320z m188 281l-205-240h-239l120 240h324z m-82 174l-28-29q16-16 37-21t79-5q29-183 99-387l37 14q-33 96-57 195t-32 142-8 58l-2 17h-20q-76 0-85 2t-20 14z m-283-53l-36-17 188-374 35 18z m89 6q0-27-74-27-13 0-31-5t-29-10-24-6-16 6-5 26q0 28 25 28h129q25 0 25-12z m-361-388q0 83 39 121t122 38 121-38 38-121-38-122-121-39-122 39-39 122z m-39 0q0-97 52-148t148-52 149 52 51 148-51 149-149 51-148-51-52-149z m641 0q0 83 38 121t121 38 122-38 39-121-39-122-122-39-121 39-38 122z m-41 0q0-97 51-148t149-52 148 52 52 148-52 149-148 51-149-51-51-149z" horiz-adv-x="1000" />
<glyph glyph-name="uniF13E" unicode="&#xe959;" d="m440 709h41v71q0 10 9 10t10-10v-71h39v71q0 21-15 36t-35 15-35-15-14-36v-71z m99-240h-39v-99h39v99z m-99-99h41v99h-41v-99z m99-241h-39v-279h39v279z m-99-279h41v279h-41v-279z m-260 600h709l117 140-117 141h-709v-281z m691 41h-650v199h650l82-100z m-742-340l-82 99 82 100h650v-199h-650z m-18-41h709v279h-709l-117-139z" horiz-adv-x="1000" />
<glyph glyph-name="uniF13F" unicode="&#xe95a;" d="m500 745q18-14 79-55t99-72 85-80 72-105 24-118q0-76-54-131t-133-55q-53 0-98 30l-45 27 63-211q-53 6-92 6t-92-6l63 211-45-27q-45-30-98-30-78 0-133 55t-54 131q0 62 23 117t70 103 84 79 100 74 82 57z m-14 41q-17-16-75-54t-103-74-98-88-81-117-29-138q0-92 66-158t162-67q37 0 76 14l-52-180 31 6q58 10 117 10 25 0 55-2t45-6l17-2 31-6-52 180q39-14 76-14 96 0 162 67t66 158q0 72-29 138t-81 117-98 88-103 74-75 54l-14 9z" horiz-adv-x="1000" />
<glyph glyph-name="uniF140" unicode="&#xe95b;" d="m385 118l27 29-203 203 205 203-29 29-233-232z m435 213v39h-627v-39h627z" horiz-adv-x="1000" />
<glyph glyph-name="uniF141" unicode="&#xe95c;" d="m400 350q0-47 27-73t73-27 73 27 27 73q0 22-6 39h264q1-19 1-39 0-31-4-60h-175q-49 0-84-36t-35-84v-175q-30-4-61-4-148 0-254 105-68 68-92 154h166q36 0 58-23t22-57v-160h40v160q0 49-35 84t-85 36h-175q-4 29-4 60 0 20 2 39h263q-6-17-6-39z m-87 80q7 4 43 21t50 21 41 12 53 7q22 0 39-3t39-10 32-12 40-17 43-19h-127q-26 20-66 20t-65-20h-122z m187 422q-207 0-354-147t-148-355 148-355 354-147 355 147 147 355-147 355-355 147z m0-43q190 0 324-135t135-324-135-324-324-135-324 135-135 324 135 324 324 135z m311-559l-211-195v115q0 32 24 56t56 24h131z m101 40h-16q4 29 4 60 0 166-117 283t-283 117-283-117-117-283 117-283 283-117 283 117q89 89 111 205z m-465 99h106q8-14 8-39 0-33-14-47t-47-13-47 13-13 47q0 25 7 39z m157-384l232 214q-27-67-82-123-67-66-150-91z m247 426q-71 5-169 49-112 50-182 50t-179-50q-96-44-172-49 22 97 97 173 106 105 254 105t254-105q76-76 97-173z" horiz-adv-x="1000" />
<glyph glyph-name="uniF142" unicode="&#xe95d;" d="m740-70q0 16 13 27t27 12 28-12 12-27-12-28-28-13-27 13-13 28z m-41 0q0-25 29-53t52-27 52 27 27 53-27 53-52 27-52-27-29-53z m-218 0q0 16 11 27t28 12 28-12 13-27-13-28-28-13-28 13-11 28z m-41 0q0-25 28-53t53-27 51 27 28 53-28 53-51 27-53-27-28-53z m-440 841q0 40 40 40t40-40-40-40-40 40z m820-800v39h-306q-37 0-47 12-14 16-24 53l-160 646q-13 45-37 67-10 7-34 14t-38 7h-135v-39h135q31 0 45-12 15-13 25-47l160-646q12-47 32-69 9-9 35-17t43-8h306z m-500 578v-39h592l-129-340h-371v-41h399l158 420h-649z m235-105l-30-28 161-160 29 28z m160-28l-29 28-161-160 30-28z" horiz-adv-x="1000" />
<glyph glyph-name="uniF144" unicode="&#xe95f;" d="m920 411v-121h-61v-100q0-25-17-43t-41-18h-641q-25 0-43 18t-17 43v320q0 26 17 43t43 18h641q23 0 41-18t17-43v-99h61z m41 39h-61v60q0 41-29 71t-70 29h-641q-41 0-70-29t-29-71v-320q0-41 29-70t70-30h641q41 0 70 30t29 70v60h61v200z m-682-119l221 99v-80l180 20-219-100v80z" horiz-adv-x="1000" />
<glyph glyph-name="uniF145" unicode="&#xe960;" d="m279 371q0 75 73 147t148 72 148-72 73-147-73-148-148-72-148 72-73 148z m-39 0q0-85 88-173t172-88 172 88 88 173-88 171-172 87-172-87-88-171z m119-1q0 48 46 94t95 46 95-46 46-94-46-94-95-45-95 45-46 94z m-39 1q0-58 61-120t119-61 119 61 61 120-61 118-119 60-119-60-61-118z m620 258q9 0 15-6t6-13v-539q-2-10-8-16t-13-6h-879q-10 0-16 6t-6 16v539q0 8 6 13t16 6h199q12 0 29 18t27 33q16 24 26 29h316q12-7 26-29 9-15 27-33t29-18h200z m0 41h-198q-10 6-25 32-10 15-27 32t-30 16h-320q-12 0-29-16t-28-32q-13-24-25-32h-197q-26 0-43-17t-18-43v-539q0-26 18-43t43-18h879q25 0 42 18t18 43v539q0 25-18 43t-42 17z m-760-99q17 0 29-12t12-28-12-29-29-11h-20q-17 0-29 11t-12 29 12 28 29 12h20z" horiz-adv-x="1000" />
<glyph glyph-name="uniF146" unicode="&#xe961;" d="m481 331h-180v-41h199v1h20v338h-39v-298z m470 273l-197 197q29 10 53 10 21-2 57-17t51-29 30-51 16-57q-2-26-10-53z m24-43q7 14 16 46t9 50q0 25-19 71t-38 65-65 38-71 19q-18 0-50-9t-46-16l-23-14 273-273z m-950 0l14-23 274 273-24 14q-14 7-46 16t-50 9q-25 0-71-19t-65-38-38-65-19-71q0-18 9-50t16-46z m24 43q-10 27-10 53 0 21 16 57t30 51 51 30 57 16q26-2 53-10z m-12-289q0 193 136 329t329 136 329-136 136-329q0-193-135-328l102-104-28-27-103 103q-127-109-301-109-175 0-303 111l-105-105-28 27 104 106q-133 135-133 326z m45-2q0-174 123-297t297-123 297 123 123 297-123 297-297 123-297-123-123-297z" horiz-adv-x="1000" />
<glyph glyph-name="uniF147" unicode="&#xe962;" d="m479 498l-30 28-416-459q-15-20-12-42t20-40l94-94q15-18 39-21t43 13l459 416-28 30-457-417q-11-9-29 8l-92 92q-17 18-7 29z m244-193l244 137q23 23 4 66t-70 98-100 102-92 80q-19 13-30 20t-31 17-33 7-23-15v-2l-137-242q-17-26-12-57t30-55l138-138q24-24 55-30t57 12z m-100 485q45-10 175-138t142-179l-239-135h-2q-8-7-26-5t-34 17l-139 139q-14 15-17 34t5 26v2z m-207-553q-4-4-13-12t-18-18-12-13q-14-14-28 1t-1 28q4 4 12 12t19 17 12 14q13 14 28-1t1-28z m27-28q18 18 18 42t-18 42-42 18-42-18q-43-41-43-43-17-17-17-42t17-42 42-17 42 17z" horiz-adv-x="1000" />
<glyph glyph-name="uniF148" unicode="&#xe963;" d="m619 200q10-32 56-54t94-38 87-56 44-102h-759q4 62 44 102t88 56 93 38 56 54q2 15 2 25-143 16-143 53v0 0q18 19 22 77t6 122 14 129 63 110 136 52q46 0 74-23 62 3 96-39t42-105 8-129 3-121 21-71v-2q0-18-41-32t-108-23q0-16 2-23z" horiz-adv-x="1000" />
<glyph glyph-name="uniF149" unicode="&#xe964;" d="m820 530v41h-240v240h-41v-281h281z m-679-680h718v709l-291 291h-427v-1000z m679 39h-640v922h371l269-270v-652z" horiz-adv-x="1000" />
<glyph glyph-name="uniF14A" unicode="&#xe965;" d="m381 49h238v-58q0-10-6-16t-13-6h-200q-7 0-13 6t-6 16v58z m-41 41v-99q0-26 17-43t43-18h200q25 0 43 18t17 43v99h-320z m279-19h41v119q0 27 22 55t48 50 48 76 23 120q0 123-88 211t-213 88-213-88-88-211q0-71 23-124t49-80 47-52 22-45v-119h41v119q0 37-23 69t-48 55-48 68-22 109q0 107 76 183t184 76 184-76 76-183q0-61-22-104t-48-64-48-56-23-77v-119z m-39-121h-41q0-16-12-28t-27-12-27 12-12 28h-41q0-34 23-57t57-24 57 24 23 57z m-60 439h-39v-260h39v260z m-86 96l-28-29 94-94 94 94-28 29-66-67z" horiz-adv-x="1000" />
<glyph glyph-name="uniF14B" unicode="&#xe966;" d="m400 498v-167h20q373 0 520 230-14-55-36-103t-62-103-95-95-139-64-188-26h-20v-168l-328 248z m40 81l-432-329 432-328v207q119 4 213 39t153 88 98 117 59 126 27 116 10 83v33h-39q-2-6-4-19t-15-49-32-71-59-74-92-71-135-52-184-25v209z" horiz-adv-x="1000" />
<glyph glyph-name="uniF14C" unicode="&#xe967;" d="m883 590q17-92 17-131 0-70-50-70-30 0-50 22h1v179h82z m-703-599h359v299h-359v-299z m41 39v220h279v-220h-279z m539 560v-178q-21-23-50-23t-50 23v178h100z m-141 0v-179h1q-20-22-50-22-30 0-50 23v178h99z m-138 0v-178q-21-23-51-23-30 0-50 22h1v179h100z m-141 0v-178q-21-23-50-23t-50 23v178h100z m-141 0v-179h1q-20-22-50-22-50 0-50 70 0 39 17 131h82z m-119 24q-19-104-19-155 0-41 19-72v-498h840v498q20 31 20 72 0 51-20 155v117h-840v-117z m801 15h-762v61h762v-61z m-762-274q14-5 31-5 40 0 71 25 31-25 69-25t69 25q32-25 71-25t70 25q31-25 70-25t71 25q31-25 69-25t69 25q32-25 71-25 17 0 31 5v-425h-61v360h-220v-360h-481v425z m522-425v320h138v-320h-138z" horiz-adv-x="1000" />
<glyph glyph-name="uniF14E" unicode="&#xe969;" d="m461 250h-102v102q0 18 22 18h80v-120z m39 0v120h61q9 0 31-11t33-23v2l22-29q22-28 52-59h-199z m-400 0h-20q-25 0-53-28t-27-52v-166q0-8 7-21t13-20q17-13 41-13h42q8-29 38-59 41-41 79-41t79 41q30 30 38 59h326q8-29 38-59 41-41 79-41t79 41q31 30 39 59h42q25 0 42 18t18 42v119q0 18-27 41t-53 34q-70 29-156 46-8 0-35 28t-51 56l-24 30q-15 15-47 31t-46 16h-180q-18 0-39-21t-22-38v-102h-220z m660-39q81-18 144-45 14-5 28-14t21-15 8-8v-119q-2-8-8-14t-13-5h-42q-8 28-39 58-41 41-79 41t-79-41q-30-30-38-58h-326q-8 28-38 58-41 41-79 41t-79-41q-30-30-38-58h-42q-10 0-16 3t-6 10v166q0 16 13 28t28 11h20 259 401v2z m-616-261h153q-6-18-23-35-26-26-54-26t-54 26q-16 17-22 35z m153 41h-153q6 17 22 33 25 25 54 25t54-25q17-16 23-33z m406-41h153q-6-18-22-35-25-26-54-26t-54 26q-17 17-23 35z m153 41h-153q6 17 23 33 26 25 54 25t54-25q16-16 22-33z" horiz-adv-x="1000" />
<glyph glyph-name="uniF14F" unicode="&#xe96a;" d="m875 411q27 0 49-15t29-27 8-19-8-19-28-27-50-14h-312l-6-8q-248-317-252-321-4-6-8-6-12-2-31-3l127 310 11 28h-295l-5-10q-49-94-63-119 14 62 39 185v4 4q-27 123-39 186 8-14 63-120l5-9h295l-11 27q-88 215-127 310 19-1 31-3 4 0 8-6l252-321 6-7h312z m0 39h-293q-242 308-246 314-14 18-35 20-28 4-47 6-16 1-26-11t-5-31q6-15 123-298h-213q-45 86-53 99-10 20-39 22h-43l2-30q2-9 39-191-37-180-39-189l-6-32h47q29 2 39 22 8 14 53 99h213q-117-283-123-298-6-18 5-31t26-11q19 2 47 6 21 2 35 20 4 4 246 314h293q59 0 92 35t33 65-33 65-92 35z" horiz-adv-x="1000" />
<glyph glyph-name="uniF151" unicode="&#xe96c;" d="m820 651h39v62q0 24-16 40t-40 17h-106q-23 0-40-17t-16-40v-62h39v62q0 18 17 18h106q17 0 17-18v-62z m-500 0h39v62q0 24-16 40t-40 17h-106q-23 0-40-17t-16-40v-62h39v62q0 18 17 18h106q17 0 17-18v-62z m586-63q22 0 37-14t16-36v-514q0-22-16-37t-37-16h-812q-22 0-37 16t-16 37v514q0 21 16 36t37 14h812z m0 43h-812q-39 0-68-27t-28-66v-514q0-39 28-68t68-28h812q39 0 68 28t28 68v514q0 39-28 66t-68 27z m-765-381v61h218v-61h-218z m500 0v61h218v-61h-218z m80-80v219h58v-219h-58z" horiz-adv-x="1000" />
<glyph glyph-name="uniF152" unicode="&#xe96d;" d="m738 438h-39v-287h-287v-39h326v326z m-457 158l-27-27 436-436 27 28z" horiz-adv-x="1000" />
<glyph glyph-name="uniF153" unicode="&#xe96e;" d="m479 366l-192-223 28-27 166 168v-401l265 268-195 195 183 190 12 13-265 268v-401l-166 168-28-27z m41-41l173-174-173-174v334 6 8z m0 50v348l173-174z" horiz-adv-x="1000" />
<glyph glyph-name="uniF154" unicode="&#xe96f;" d="m39 348q0-191 135-326t326-135 326 135 135 326-135 326-326 135-326-135-135-326z m-39 2q0 205 147 351t353 145 354-145 146-351-146-351-354-145-353 145-147 351z m471-107v29q0 35 21 64l49 67q33 45 33 74 0 31-19 49t-51 17q-61 0-74-68-2-6-8-6l-45 8q-8 2-6 10 8 51 44 82t91 31q59 0 94-34t35-89q0-41-35-92l-49-66q-18-26-18-55v-21q0-8-8-8h-46q-8 0-8 8z m-4-71q0 8 8 8h54q6 0 6-8v-60q0-8-6-8h-54q-8 0-8 8v60z" horiz-adv-x="1000" />
<glyph glyph-name="uniF155" unicode="&#xe970;" d="m900 400q0 46-32 78t-78 32-78-32-32-78 32-78 78-32 78 32 32 78z m-41 0q0-28-20-49t-49-20-49 20-20 49 20 49 49 20 49-20 20-49z m108-302l25 29q-13 14-36 30t-92 44-135 28q-75 0-210-35t-210-35q-82 0-151 20t-97 40l-28 22-25-32q12-11 35-26t102-40 164-25q84 0 219 36t201 36q58 0 118-24t91-46z m-822 84l19-35 358 213-45 97q0 2-1 5t-6 13-12 14-18 8-24-2q-19-8-100-47t-87-41q-18-6-28-3t-6 14 22 22q33 19 84 46t96 49l48 24q14 10 24 8t21-22q18-29 80-127t73-115q17-29 17-43t-21-39l27-29q57 55 12 133-10 17-73 116t-80 126q-37 62-99 27-2 0-48-23t-97-50-84-46q-35-21-39-53t22-49 64-3q10 3 91 43t93 43q4 1 7-1t5-11l29-69z" horiz-adv-x="1000" />
<glyph glyph-name="uniF156" unicode="&#xe971;" d="m307 268q6-14 33-24t53-27 27-47h-301q2 32 28 47t53 27 32 24q2 8 2 33-15 8-17 39-12 0-14 22-2 11 6 17-27 110 61 112 27 0 35-14 31-6 34-44t-7-54q6-6 6-17-4-22-14-22-4-31-17-39v-33z m213 143v-41h361v41h-361z m0-100v-41h361v41h-361z m0-102v-39h361v39h-361z m420 381q9 0 15-6t6-13v-561q0-8-6-14t-15-5h-100v39h-119v-39h-442v39h-119v-39h-99q-10 0-16 5t-6 14v641q0 8 6 14t16 5h400q8 0 14-5t6-14v-61h459z m0 39h-420v22q0 23-18 41t-41 17h-400q-26 0-43-17t-18-41v-641q0-25 18-43t43-17h138v41h41v-41h520v41h41v-41h139q25 0 42 17t18 43v561q0 23-18 41t-42 17z" horiz-adv-x="1000" />
<glyph glyph-name="uniF157" unicode="&#xe972;" d="m504 524l-6-41 10-1q10-1 27-3t40-5 47-7 50-7 50-5 44-6 33-5q2-1 4-1l-303-118-420 164 420 127 420-127-54-21q-17 12-44 15z m416-334q0 17-12 29-3 4-8 6v162q0 28-8 48l149 58-541 166-541-166 240-94v-158q0-63 90-97t211-34 211 34 90 97v158l55 21q0-1 0-3 3-10 3-30v-162q-4-2-7-6-12-12-12-29 0-22 41-119l10 23q9 26 19 56t10 40z m-680 193l260-101 260 101v-142q0-32-75-61t-185-29q-74 0-137 14t-92 36-31 40v142z" horiz-adv-x="1000" />
<glyph glyph-name="uniF15A" unicode="&#xe975;" d="m440 610h-40v-141h-140v-39h140v-140h40v140h140v39h-140v141z m-372-159q0 146 103 249 103 103 249 103 146 0 249-103 103-103 103-249 0-133-86-230l252-252-57-57-254 255q-90-67-207-67-146 0-249 103-103 103-103 248z m51-2q0-124 88-212 88-89 213-89 124 0 213 89 88 88 88 212t-88 213q-89 88-213 88-125 0-213-88-88-88-88-213z" horiz-adv-x="1000" />
<glyph glyph-name="uniF15B" unicode="&#xe976;" d="m641 170v-41h181q75 0 126 53t52 127q0 68-48 118t-110 58q2 6 2 12 0 109-77 185t-187 76q-76 0-139-40t-97-106q-39 23-76 23-57 0-96-38t-45-93q-61-23-94-71t-33-110q0-80 57-137t136-57h166v41h-166q-64 0-109 45t-45 108q0 52 32 93t81 55l14 4v20q0 43 30 72t72 29 70-29l21-24 12 30q24 64 81 105t128 41q92 0 157-65t66-157q0-12-2-28l-2-23h25q55-2 96-41t41-97-41-98-98-40h-181z m-254 135l27-29 86 86 86-86 27 29-113 113z m94-314h39v392h-39v-392z" horiz-adv-x="1000" />
<glyph glyph-name="uniF15C" unicode="&#xe977;" d="m121 454q0-123 88-211t211-88 211 88 88 211-88 211-211 87-211-87-88-211z m-45 0q0 142 101 243t243 100 243-100 101-243-101-244-243-100-243 100-101 244z m598-221l264-264-57-57-264 264z" horiz-adv-x="1000" />
<glyph glyph-name="uniF15D" unicode="&#xe978;" d="m279 411q-7-28-7-61t7-60h-211q-7 27-7 60t7 61h211z m442-121q8 27 8 60t-8 61h211q8-28 8-61t-8-60h-211z m-281-161q27-7 60-7t61 7v-211q-28-8-61-8t-60 8v211z m121 442q-28 8-61 8t-60-8v211q27 8 60 8t61-8v-211z m39-462q99 42 140 141h169q-28-112-111-197-84-85-198-112v168z m-6 43q-3 3-6 7-12 11-27 11h-4l-4-2q-16-5-53-5-18 0-30 1t-19 2l-4 2-4 2h-3q-16 0-28-11-4-4-6-8-34 16-61 44-27 27-44 61 4 3 8 6 11 12 11 28v3l-2 4q-5 16-5 53 0 18 1 30t2 19l2 4 2 4v4q0 15-11 27-4 3-8 6 33 72 105 105 3-4 6-8 12-11 28-11h3l4 2q16 6 53 6 18 0 30-1t19-3l4-2 4-2h4q15 0 27 11 3 4 6 8 72-32 105-105-4-2-8-6-11-12-11-27v-4l2-4q6-16 6-53 0-18-1-30t-3-19l-2-4-2-4v-3q0-16 11-28 4-3 8-6-34-72-105-104z m-194-42v-169q-112 27-196 110-85 85-112 199h168q19-47 55-84 37-37 85-56z m0 481q-100-41-141-141h-168q27 114 112 198 85 83 197 111v-168z m200 0v167q112-26 196-109 86-85 113-199h-168q-41 100-141 141z m350-339q31 12 31 98 0 85-31 98-4 19-10 38 3 6 5 12 4 10 10 42t4 63-18 69-47 72-72 47-69 18-63-4-42-10q-7-2-13-5-18 5-37 10-11 31-98 31-86 0-98-31-19-4-38-10-6 3-12 5-10 4-42 10t-63 4-69-18-72-47-47-72-18-69 4-63 10-42q2-6 5-12-6-18-10-38-30-12-30-98 0-87 31-98 4-19 9-37-2-6-5-13-4-10-10-42t-4-63 18-69 47-72 72-47 69-18 63 4 42 10q6 2 12 5 19-6 38-10 12-31 98-31 86 0 98 31 20 4 38 10 6-3 12-5 10-4 42-10t63-4 69 18 72 47 47 72 18 69-4 63-10 42q-2 6-5 12 6 19 10 38z m-35-102q5-25 4-50-1-25-14-58t-40-57q-41-43-95-52-45-7-75-1 73 34 131 93 56 57 89 125z m-615-215q-25-5-50-4-25 1-58 14t-57 40q-43 41-52 96-7 44-1 75 34-74 94-133 56-56 124-88z m-215 615q-5 26-4 50 1 25 14 58t40 57q41 43 96 52 44 7 74 1-71-33-130-92-57-56-90-126z m613 215q27 5 52 4 25-1 58-14t57-40q43-41 52-95 7-46 1-76-35 73-95 132-56 56-125 89z" horiz-adv-x="1000" />
<glyph glyph-name="uniF15E" unicode="&#xe979;" d="m221 202l-35 21-43-74v-2q-12-31 55-99t99-55h2l74 43-21 35-67-41q-23 11-58 47t-47 58z m379 7h-39v-169l-90-75-28 116-39-10 45-176 151 125v189z m-241 202v39h-189l-125-151 176-45 10 39-116 28 75 90h169z m581 379q-14-141-69-252-35-69-86-122-105-105-402-341-35 7-93 65t-65 93q232 293 341 402 51 51 122 86 111 55 252 69z m19 41q-148-4-289-73-76-39-133-95-119-120-347-411l-2-4-14-56q2 6 68 289l43 184v0-2 0 0 0h-2v0 0-2 0 0 0-2 0 0-2 0-2 0h-2v-2 0-2 0-2 0-2 0l-2-2v0-2 0-2 0-2 0-2h-2v-2-2 0-2 0-2h-2v-2-2 0-2-1l-2-2v-2 0-2-2l-1-2v-2-2-2-2h-2v-2-2-2-2l-2-2v-2-2-2l-2-2v-2-2-1l-2-2v-2-2-2-2h-2v-2-2-2-2h-2v-2-2-2-2l-2-2v-2-2-2l-2-2v-2-2-1-2h-2v-2-2-2-2l-2-2v-2-2-2l-2-2v-2-2-2l-2-2v-2-2-2-2h-2v-2-2-2-1l-2-2v-2-2-2l-2-2v-2-2-2-2h-2v-2-2-2l-2-2v-2-2-2-2l-2-2v-2-2-1l-2-2v-2-2-2l-2-2v-2-2-2-2l-1-2v-2-2-2l-2-2v-2-2-2l-2-2v-2-2-1-2l-2-2v-2-2-2l-2-2v-2-2-2l-2-2v-2-2-2-2l-2-2v-2-2l-2-2v-2-2-2-1l-2-2v-2-2-2l-2-2v-2-2-2-2l-2-2v-2-2l-2-2v-2-2-2-2l-2-2v-2-2-1-2l-2-2v-2-2l-2-2v-2-2-2-2l-2-2v-2-2-2l-2-2v-2-2-2l-2-2v-2-2-1-2l-2-2v-2-2l-2-2v-2-2-2-2l-2-2v-2-2-2l-1-2v-2-2-2l-2-2v-2-2-2l-2-3q-10-47 76-133t133-76l3 2 4 2q293 230 411 347 56 57 93 133 71 139 75 289v22h-22z m-807-776l-25 31q-12-11-44-28t-45-29-25-53-13-107v-19h20q66 0 108 15t55 27 29 45 24 42l-33 23q-13-19-24-46t-19-36-36-18-83-11q2 53 10 78t16 33 37 22 48 31z m467 475q0 33 14 47t47 13 47-13 13-47-13-47-47-14-47 14-14 47z m-39 0q0-47 26-74t74-26 73 26 26 74-26 73-73 26-74-26-26-73z" horiz-adv-x="1000" />
<glyph glyph-name="uniF15F" unicode="&#xe97a;" d="m561 696l23-31q76 56 143 59t105-42q35-33 42-79t-20-105-90-121q-94-93-187-116t-137 29q-49 48-30 132l-39 10q-25-105 39-172 72-64 177-38t206 128q100 100 117 197t-49 164q-56 57-136 53t-164-68z m-235-260l-39 8q-10-53-5-99 1-39-12-100-16-71-41-96l-10-9q-9 3-19 3-20 0-34-14l-146-146q-18-22-11-48t28-48 48-28 48 10l146 147q14 14 14 35 0 10-3 19l9 9q25 25 96 40 59 12 97 13 40-5 86 2 141 23 274 156 88 89 123 179t19 166-74 135q-72 72-170 78t-211-64l22-34q103 65 186 60t146-67q48-51 63-115t-17-145-115-164q-84-84-171-120t-156-27-116 59q-80 78-55 205z m-146 214q0-87 47-134t133-47 133 47 46 134-46 134-133 47-133-47-47-134z m70-591q8-8 0-16l-144-144q-18-6-41 16t-16 40l144 145q8 8 16 0z m150 104q-9-2-17-3-76-15-113-52l-6-6-12 12 6 6q37 37 53 113 1 9 3 17 5-8 10-15l-2 0q-4-26-11-49l-8-33 33 8q21 5 45 9l-1 6q10-7 20-13z m96 443q-7-40-29-63-24-24-70-30-8 69-60 114-75 66-111 75 8 34 28 54 22 22 62 30 16-63 67-114 51-51 113-66z m-140 183q2 1 4 1 74 0 107-34t33-106q0-2 0-4-49 14-90 56-40 39-54 87z m16-279q-6 0-12 0-73 0-106 33t-33 107q0 15 1 28 37-14 88-71 50-57 62-97z" horiz-adv-x="1000" />
<glyph glyph-name="uniF160" unicode="&#xe97b;" d="m576 237l-29 29-74-76h-53v-51l-27-29h-53v-51l-49-49h-70v-72l-49-49h-104l-29 29v104l375 373-29 29-385-386v-137l51-51h137l72 72v47h49l72 72v30h27l53 51v29h27z m424 293q0 133-94 226t-226 94-227-94-94-226 94-227 227-94 226 94 94 227z m-39 1q0-116-82-199t-198-82-199 82-82 199 82 198 199 82 198-82 82-198z m-451 141l312-312 14 15q64 63 64 155t-64 156-156 64-155-64z m310-254l-252 252q55 43 122 39t117-52q50-49 52-119t-39-120z m-802-482l29-27 332 332-27 29z" horiz-adv-x="1000" />
<glyph glyph-name="uniF161" unicode="&#xe97c;" d="m580 750v-476l12-6q49-25 78-73t29-105q0-84-58-142t-141-59-141 59-58 142q0 57 29 105t78 73l12 6v476q0 61 80 61t80-61z m39-453v453q0 49-35 75t-84 25-84-25-35-75v-453q-57-33-89-88t-32-119q0-99 70-170t170-70 170 70 70 170q0 67-34 122t-87 85z m-219 373v-41h280v41h-280z m200-80v-41h80v41h-80z m0-80v-41h80v41h-80z m0-80v-41h80v41h-80z m0-80v-39h80v39h-80z" horiz-adv-x="1000" />
<glyph glyph-name="uniF162" unicode="&#xe97d;" d="m729 420q56 0 95-39t39-95-39-96-95-39q-30 0-64 12t-53 23-57 37l-45 31 15-52q26-86 67-227-94 12-184 0l82 279-45-31q-41-25-58-37t-52-23-63-12q-57 0-96 39t-39 96 39 95 96 39q60 0 146-54l78-51-51 78q-2 4-15 24t-18 28-14 24-14 28-9 25-8 29-2 28q0 56 39 95t96 39 96-39 39-95q0-14-2-28t-8-29-9-25-13-28-15-24-18-28-15-24l-51-78 78 49q86 56 147 56z m0 41q-45 0-98-23 45 78 45 141 0 72-52 124t-124 51-124-51-52-124q0-63 45-141-53 23-97 23-73 0-124-51t-52-124 52-124 124-52q68 0 150 51l-70-237 31 6q115 22 234 0l31-6-9 31q-33 114-61 206 82-51 151-51 72 0 124 52t51 124-51 124-124 51z" horiz-adv-x="1000" />
<glyph glyph-name="uniF163" unicode="&#xe97e;" d="m801 549q29 0 55-23t25-53v-432q0-29-22-50t-50-22h-618q-29 0-50 22t-22 50v428q0 28 24 54t56 26h602z m0 41h-602q-51 0-85-39t-34-82v-428q0-45 33-78t78-33h618q45 0 78 33t33 78v432q0 47-36 82t-83 35z m-80 39h39v69q0 58-29 79t-92 3q-106-28-418-114v-1q-84-32-113-70t-28-104v-49l39-2 2 51q0 58 19 84t92 52q356 98 416 114 55 13 64 7t9-50v-69z m50-420q-21 0-36 15t-14 36 14 36 36 15 35-15 14-36-14-36-35-15z" horiz-adv-x="1000" />
<glyph glyph-name="uniF164" unicode="&#xe97f;" d="m119 170h41v200h-41v-200z m-72 69l19-35 168 97-21 35z m166-35l21 35-168 97-19-35z m127-274h41v199h-41v-199z m-74 68l21-33 166 96-19 35z m168-33l19 33-166 98-21-35z m232-2l37 14-49 121-37-16z m-74 61l15-37 122 49-16 37z m246 98l37 15-33 80-37-15z m-45 50l16-37 78 33-14 38z m-94 319h41v320h-41v-320z m-9 299v-40h60v40h-60z m0-241v-39h60v39h-60z m158 4l21 35-277 159-20-34z m-264 141l35-20 29 53-35 20z m207-119l35-22 30 53-34 19z m-219 13l20-35 277 160-21 34z m250 86l34 20-30 53-35-20z m-209-121l35 22-29 50-35-19z m-312-103h39v281h-39v-281z m-111 88l19-36 242 141-19 35z m242-36l19 36-242 140-19-35z" horiz-adv-x="1000" />
<glyph glyph-name="uniF165" unicode="&#xe980;" d="m740-70q0 16 13 27t27 12 28-12 12-27-12-28-28-13-27 13-13 28z m-41 0q0-25 29-53t52-27 52 27 27 53-27 53-52 27-52-27-29-53z m-218 0q0 16 11 27t28 12 28-12 13-27-13-28-28-13-28 13-11 28z m-41 0q0-25 28-53t53-27 51 27 28 53-28 53-51 27-53-27-28-53z m-440 841q0 40 40 40t40-40-40-40-40 40z m820-800v39h-306q-37 0-47 12-14 16-24 53l-160 646q-13 45-37 67-10 7-34 14t-38 7h-135v-39h135q31 0 45-12 15-13 25-47l160-646q12-47 32-69 9-9 35-17t43-8h306z m139 553l-37 14-139-368h-371v-41h399z m-225-27l-29 27-86-86-86 86-27-27 113-116z m-93 314h-41v-395h41v395z" horiz-adv-x="1000" />
<glyph glyph-name="uniF166" unicode="&#xe981;" d="m262 262h39v287h287v39h-326v-326z m469-172l29 30-453 451-28-28z" horiz-adv-x="1000" />
<glyph glyph-name="uniF167" unicode="&#xe982;" d="m340 270v-39q90 0 160-23t109-55 72-72 50-73 42-56 49-22q37 0 48 90t11 369q0 277-12 369t-49 92q-29 0-54-31t-54-75-69-88-120-75-183-32v-39q101 0 183 28t128 69 80 83 54 76 30 41q25-66 25-418 0-357-24-418-7 4-27 39t-52 76-81 84-131 72-185 28z m519 61v-41h22q41 0 70 29t30 71-30 71-70 30h-22v-41h22q23 0 41-18t18-42-18-42-41-17h-22z m-558-81h-41q0-207 51-257 19-20 24-29t5-25-6-23-21-6h-71q-21 0-29 8t-12 30q-29 154-53 229t-56 99l-22-33q39-28 92-303 14-71 80-71h71q33 0 50 21t18 50q0 39-41 80-6 6-14 27t-16 77-9 126z m-174 260h193v-240h-193q-37 0-62 25t-26 61v68q0 35 26 61t62 25z m0 39q-53 0-90-36t-37-89v-68q0-53 37-89t90-36h232v318h-13-6-213z" horiz-adv-x="1000" />
<glyph glyph-name="uniF169" unicode="&#xe984;" d="m686 24l29-28 80 81-29 27z m-580 19l29-27 80 80-29 27z m314-154h41v201h-41v-201z m-74 70l21-35 166 98-19 33z m168-35l19 35-166 96-21-33z m207 307h-481q-50 0-86 35t-35 84 35 84 86 35h20l27-6-4 28q-4 15-4 29 0 70 50 120t120 50q65 0 112-41t56-102l4-27 26 12q35 17 74 17 66 0 113-47t47-112-47-112-113-47z m0-41q82 0 140 58t59 142-59 142-140 58q-33 0-69-11-19 66-75 109t-128 43q-86 0-147-62t-62-149q0-10 6-12l2 2h-8q-66 0-113-47t-47-113 47-113 113-47h481z" horiz-adv-x="1000" />
<glyph glyph-name="uniF16B" unicode="&#xe986;" d="m353-115l38 13-96 267q10 9 23 20 20 18 75 47 54 29 100 29 59 0 128-21t116-20q92 0 172 43l11 6v583l-33-26q-10-9-29-22-18-13-68-34-50-21-92-21-40 0-126 40t-159 41q-60 0-118-14-57-15-93-32-37-18-70-41-23-16-34-26l-12 32-37-14z m-113 870q13 5 28 11 70 24 145 24 12 0 26-2l40-152-31 2q-83 0-152-27l69-175q-66-26-135-87l-66 184q60 52 132 78z m125-319l14 5q15 4 37 9 23 5 39 5 37 0 74-5l-50 186q37 0 140-51l-34 151q65-27 113-27 28 0 59 7 6-73 12-146l17 6q18 5 51 22 22 11 43 26v-173q-49-25-99-35l-12 154-56-8q-48 0-94 23l38-167q-116 30-128 32l41-156q-39 7-77 7-36 0-72-12z m327-171l-35 153 65-7q26 0 59 5l12-151q-28-5-56-5-18 0-45 5z" horiz-adv-x="1000" />
<glyph glyph-name="uniF16D" unicode="&#xe988;" d="m566-95l28-30 41 41-29 28z m-179 80l27-30 41 41-29 28z m379 0l29-30 39 41-27 28z m-504 346l21-12 82 310h-25q-67 0-113-47t-47-113q0-43 22-80t60-58z m-2 50q-39 37-39 88 0 43 28 76t64 41z m80 248v-39q45 0 78-29l25 31q-45 37-103 37z m0 0v-39q45 0 78-29l25 31q-45 37-103 37z m-20 61h39v100h-39v-100z m-300-199v-41h99v41h-99z m461 148l29-27 70 70-27 29z m-381-381l27-29 72 72-29 28z m27 453l-27-29 70-70 29 27z m693-322q59 0 100-41t41-99-41-98-100-41h-420q-41 0-70 29t-29 71 29 72 70 29h6 24l-6 23q-4 18-4 36 0 66 47 113t113 47q59 0 104-39t54-96l4-25 24 9q25 10 54 10z m0 41q-21 0-47-6-21 67-73 107t-120 40q-82 0-140-59t-59-142v-22q-55-8-88-47t-33-92q0-56 41-97t99-41h420q75 0 127 52t53 127-53 127-127 53z" horiz-adv-x="1000" />
<glyph glyph-name="uniF16E" unicode="&#xe989;" d="m779 370h-99v41h99v-41z m-459 0h-99v41h99v-41z m620 220q9 0 15-6t6-13v-160h-141q0 15-11 27t-30 12h-99q-16 0-28-12t-11-27h-282q0 15-11 27t-28 12h-99q-18 0-30-12t-11-27h-141v160q0 8 6 13t16 6h879z m-120-220h141v-360q0-8-6-14t-15-5h-879q-10 0-16 5t-6 14v360h141q0-16 11-28t30-11h99q16 0 28 11t11 28h282q0-16 11-28t28-11h99q18 0 30 11t11 28z m-140 259v61q0 25-18 43t-43 17h-238q-25 0-43-17t-18-43v-61h-259q-26 0-43-17t-18-41v-561q0-25 18-43t43-17h879q25 0 42 17t18 43v561q0 23-18 41t-42 17h-260z m-321 0v61q0 8 6 14t16 5h238q10 0 16-5t6-14v-61h-282z" horiz-adv-x="1000" />
<glyph glyph-name="uniF16F" unicode="&#xe98a;" d="m992 250l-431 329v-209q-102 3-185 25t-135 52-92 71-59 74-32 71-15 49-4 19h-39v-33t10-83 27-117 59-125 98-118 153-86 214-40v-207z m-392 248l328-248-328-248v168h-20q-103 0-188 26t-139 64-95 95-62 103-35 103q146-230 519-230h20v167z" horiz-adv-x="1000" />
<glyph glyph-name="uniF170" unicode="&#xe98b;" d="m846 487l115 115q-2-55-16-124t-35-93q-54-53-109-70t-100-3-84 54l-99 99q-37 37-49 89t-2 98 35 71 51 43 43 27 43 14 37 5 41 0 39-1q-106-104-117-115-20-24-13-99t26-95q18-17 96-25t98 10z m-26 29q-17-4-71 2t-69 12q-8 21-12 73t0 67q8 8 41 42t62 62l28 27 2 2v2q2 2 3 5t3 11 1 13-8 11-21 5q-6 0-46 2t-59 0-57-11-71-31-71-60q-34-33-45-88t3-118 57-106l100-100q47-47 101-63t120 3 126 81 61 266q2 22-10 28t-23 0l-10-4h-2l-2-2q-113-115-131-131z m-566-619q334 402 373 435l8 16q-18 8-119-99t-196-217l-91-110q-18-15-39-25t-55-6-62 31-32 61 6 57 25 39v-2l426 390-23 26-426-389h-2z m-207 207q-20-22-33-52t-8-74 42-81 80-42 75 9 51 33z" horiz-adv-x="1000" />
<glyph glyph-name="uniF172" unicode="&#xe98d;" d="m820 129q41 0 71-29t29-70-29-71-71-29-70 29-29 71q0 40 28 69-10 15-19 32-2 2-3 4-3-2-6-6-41-41-41-98t41-100 98-42 100 42 42 100-42 98-100 41q-32 0-59-12 2-3 4-6 9-16 18-30 17 7 38 7z m0 80q75 0 127-52t53-127-53-127-127-53-127 53-52 127 52 127q8 7 16 13-15 28-27 56-10-6-21-18-14-14-28-36t-20-58 0-80v-2q2-34-36-47t-85-14q-90-1-136 22-10-51-49-90-53-53-127-53t-127 53-53 127 53 127 127 52q18 0 36-3-2 2-4 3-11 10-33 15t-31 6-35 1h-33q-47 0-74 25l-8 8v2 2l2 2v2 2 2q0 0 1 0 0 2 1 3-1-1-1-2l1 1v2 0q0 2 1 3l1 1v1q2 4 6 8 8 10 23 25t49 23 78 9q67 0 93-9t44-42q6-8 44-18t77-11l6 15q6 14 11 22t17 22 29 21 41 14 58 6q16 0 28 19 11 17 11 29 0 0 0 0-2 12-12 32-46-8-74-34l-27 28q43 45 113 47h14l6-12q13-23 19-51l8-31q1-4 2-9 31 23 84 23 68 0 68-71t-68-70q-27 0-48 4 16-40 38-82 36 17 78 17z m-640-80q41 0 70-29 22-22 28-51h41q-5 46-40 80-3 4-6 7l-1-1q-1 2-2 3-38 32-89 32-58 0-100-41t-42-98 42-100 100-42 98 42q34 34 40 79h-41q-6-29-28-51-29-29-70-29t-71 29-29 71 29 70 71 29z m0-39q-26 0-43-17t-18-43 18-43 43-18 43 18q10 10 14 23h-57v39h57q-4 13-14 24-18 17-43 17z m125 69q1-1 2-2 49-49 52-117 10-9 52-19 46-11 81-11 63 0 80 20-15 158 92 232-14 37-29 96-22-27-55-27-53 0-79-16t-30-34-15-34-36-16q-129 0-158 49-12 23-24 27t-78 4q-80 0-113-35 18-6 33-6h25 28t27-2 31-6 30-13 30-21 28-31q15-17 26-38z m-303 120q0 1 0 1v1z m33 120q0 0 0 0h0v0z m0 0v2 2 2l2 2v2 2 2l2 2v1 2 2h2z m0 0l-4-14v2 2 2l2 2v2 2 2h2z m-4-14q0 0 0 0 0 0 0 0v0z m0 0l-2-6v0 2 2q1 1 2 2z m-2-6q0-1 0-2l0 0v2z m0-2l-2-5v1 2z m-2-5l0-2h0v2z m0-2q-1-3-2-5v1 2 2h2z m-2-5q0-1 0-1h0v1z m0-1l-2-6v0 2 2 2h2z m-2-6l0-2h0v2z m0-2q-1-3-1-5v1 2 2h1z m-1-5q-1-2-1-4l1 1v2 1z m-1-4q-1-2-1-3v0 2z m-1-3q-1-1-1-2l1 0v2z m-1-2l-1-5v1 2z m-1-5q0-1 0-1 0 0 0 0v1z m0-1l-2-6v1 1 2q1 1 2 2z m-2-6q-1-2-2-5l2 2v2 1z m-2-5l0-2v2z m0-2l-1-3 1 1v2z m-1-3q-1-2-1-4v1 2z m-1-4l-1-4q0 0 1 1v2 1z m-1-4q-1-2-1-3v0 2q0 0 1 1z m-1-3l-2-5 2 1v2 2z m-2-5q0-1 0-2v1z m0-2q-1-2-1-4l1 1v2 1z m-1-4q-1-1-1-3v0 2z m-1-3l-1-5q0 1 1 1v2 2z m-1-5q-1-1-1-2v2q0 0 1 0z m-1-2q-1-3-2-6 1 0 1 1 0 1 1 2v1 2 0z m-2-6l0-1v1q0 0 0 0z m769-217q-11-15-11-35 0-26 17-43t43-18 43 18 18 43-18 43-43 17q-9 0-16-2 25-37 52-64l-30-28q-28 30-55 69z m-93 289q4-15 9-30 0-3 1-6l2 3q21-10 62-10h15t8 1 5 3 1 5-1 9-1 11 1 14 1 9-3 4-8 3h-18q-49 0-68-22-3 3-6 6z" horiz-adv-x="1000" />
<glyph glyph-name="uniF173" unicode="&#xe98e;" d="m119 415l762 228v-584l-762 266v90z m-39 31v-151l840-293v696z m445-293l-37 12-17-49q-6-20-25-30t-36-2l-84 28q-19 6-28 24t-3 36l18 47-38 14-17-47q-12-35 5-68t52-45l82-28q35-11 68 5t45 52z m395-123v640q0 20 20 20 9 0 15-6t6-14v-640q0-8-6-14t-15-6q-20 0-20 20z m-39 0q0-26 17-43t42-18 42 18 18 43v640q0 26-18 43t-42 18-42-18-17-43v-640z m-842 281v119q0 8 6 14t16 6q19 0 19-20v-119q0-10-6-16t-14-5-15 5-6 16z m-39 0q0-25 18-43t42-18 42 18 17 43v119q0 26-17 43t-42 18-42-18-18-43v-119z" horiz-adv-x="1000" />
<glyph glyph-name="uniF174" unicode="&#xe98f;" d="m615 582l-27-29 203-203-205-203 29-29 233 232z m-435-212v-39h629v39h-629z" horiz-adv-x="1000" />
<glyph glyph-name="uniF176" unicode="&#xe991;" d="m440 730q0 22 84 52t176 29 176-29 84-52-85-51-175-28-176 28-84 51z m-40 0q0-44 102-82t197-38 199 38 102 82-102 82-199 38-197-38-102-82z m40-21h-40v-119q0-21 33-50t63-40q27-9 96-20t108-11 109 11 95 20q30 10 63 40t33 50v119h-39v-119q-2-8-23-25t-47-27q-26-8-89-18t-102-10-101 10-91 18q-24 9-46 27t-22 25v119z m134-328l-8-39q63-11 133-11 41 0 110 9t95 20q30 12 63 41t33 49v121h-39v-121q-2-8-23-26t-47-25q-26-10-89-20t-103-9q-66 0-125 11z m-134 190h-40v-86h40v86z m144-332l-6-39q57-10 121-10 41 0 110 10t95 21q30 10 63 39t33 51v119h-39v-119q-2-8-23-25t-47-28-89-18-103-9q-60 0-115 8z m-2-139l-6-39q59-12 123-12 41 0 110 11t95 21q30 9 63 39t33 50v120h-39v-120q-2-7-23-25t-47-27q-26-8-89-18t-103-10q-60 0-117 10z m-543 290q0 23 85 51t176 28 176-28 85-51-85-51-176-28-176 28-85 51z m-39 0q0-44 103-82t198-38 197 38 102 82-102 82-197 38-198-38-103-82z m39-20h-39v-120q0-21 33-50t63-39q27-10 95-21t109-11 108 11 96 21q31 9 63 39t33 50v120h-39v-120q0-7-23-25t-46-27q-27-10-91-19t-101-9-102 9-89 19-47 27-23 25v120z m0-139h-39v-121q0-20 33-49t63-41q27-10 95-20t109-9 108 9 96 20q31 12 63 41t33 49v121h-39v-121q0-8-23-26t-46-25q-27-10-91-19t-101-10-102 10-89 19q-25 8-47 25t-23 26v121z m0-141h-39v-121q0-19 33-49t63-39q27-12 95-21t109-10 108 10 96 21q31 10 63 39t33 49v121h-39v-121q0-6-23-24t-46-27q-27-9-91-19t-101-10-102 10-89 19q-25 8-47 27t-23 24v121z" horiz-adv-x="1000" />
<glyph glyph-name="uniF177" unicode="&#xe992;" d="m301 795l443-445-443-445-43 43 404 402-404 402z" horiz-adv-x="1000" />
<glyph glyph-name="uniF178" unicode="&#xe993;" d="m600 198v-2-4q15-39 58-65t87-37 84-42 48-79h-715q10 47 49 76t84 42 88 39 58 66v4 2q2 17 2 25l2 20-19 2q-88 9-121 31 15 29 19 90t6 121 15 119 56 98 122 44h-1q41 0 60-17l6-6h8q68 4 94-50t31-155q2-25 1-87t3-97 17-60q-35-24-127-31l-17-2v-20q0-17 2-25z m37 8q70 9 109 25t39 47v10l-6 5q-9 8-10 61t-3 120-13 134-49 112-102 46q-36 22-80 22h-2q-90-6-144-55t-71-117-22-136-5-122-12-67l-6-5v-8q2-51 144-71-9-21-55-42t-94-39-90-64-46-110v-22h803l-2 22q-4 64-46 111t-90 66-94 40-53 37z" horiz-adv-x="1000" />
<glyph glyph-name="uniF179" unicode="&#xe994;" d="m481 649h39q0 62-44 106t-106 44-105-44-44-106q0-35 13-65l38 18q-12 21-12 47 0 45 32 77t78 32 78-32 33-77z m427-299q12 0 12-14v-97q0-12-12-12h-33q-35 0-51-35-31-65-92-98-37-19-21-56l10-26q6-14-8-19l-65-24q-13-6-17 8-10 23-14 37-6 18-17 24t-25 5-41-3-50-2-46 4-39 6-25-5-18-25q-14-33-16-41-6-14-20-8l-64 24q-14 5-8 19 12 28 18 49 11 31-18 55-92 72-96 160-5 142 86 215 104 80 246 80 61 0 116-14l15-4 8 16q16 35 36 54t54 36q-22-63-20-114v-15l12-4q108-37 123-145 6-31 47-31h33z m0 39h-33q-8 0-8 2-21 119-135 168 2 45 32 125l13 35-37-10q-99-23-146-109-55 12-110 12-156 0-271-90-107-84-100-248 4-106 110-190 8-5 6-11-6-18-18-47-8-22 1-42t30-29l65-23q21-8 42 1t28 30 16 41l2 4q58-10 89-10h32t26 1 19 2 12 2l5 1v-4l16-37q8-21 28-30t40-1l65 23q21 8 31 29t2 42l-12 27v2q0 2 4 4 72 39 109 115 4 12 14 12h33q22 0 37 16t16 37v97q0 22-16 37t-37 16z m-178-78q-17 0-28 12t-11 27 11 26 28 11 27-11 11-26-11-27-27-12z m-599 59l10 37q-6 2-17 7t-27 21-17 40q0 35 27 47l-15 37q-53-23-53-84 0-39 24-65t46-35z" horiz-adv-x="1000" />
<glyph glyph-name="uniF17A" unicode="&#xe995;" d="m340 709h-39v-80h39v80z m-61-19v-39h80v39h-80z m-99-221h-39v-39h39v39z m-39 0v-39h39v39h-39z m660-219q-22-80-76-129t-145-50q-99 0-170 70t-70 170q0 88 51 144t129 75q0-115 82-198t199-82z m0 40q-100 0-170 70t-70 170q0 15 2 35l3 25-25-4q-103-13-172-92t-68-183q0-117 82-199t197-82q106 0 184 69t93 171l4 27-27-4q-19-3-33-3z" horiz-adv-x="1000" />
<glyph glyph-name="uniF17C" unicode="&#xe997;" d="m740 630q0 15 13 28t27 12 28-12 12-28-12-27-28-13-27 13-13 27z m-41 0q0-24 29-52t52-29 52 29 27 52-27 52-52 27-52-27-29-52z m221 111v-299q0-45-8-53l-455-453q-4-6-12-6t-11 6l-348 348q-6 4-6 11t6 12l453 455q8 8 53 8h299q11 0 20-9t9-20z m41 0q-2 9-9 26t-12 23-24 13-25 8h-299q-61-2-80-20l-455-455q-18-17-18-41t18-41l347-347q18-18 41-18t41 18l455 455q20 19 20 80v299z" horiz-adv-x="1000" />
<glyph glyph-name="uniF17D" unicode="&#xe998;" d="m740 630q0 15 13 28t27 12 28-12 12-28-12-27-28-13-27 13-13 27z m-41 0q0-24 29-52t52-29 52 29 27 52-27 52-52 27-52-27-29-52z m221 111v-299q0-45-8-53l-455-453q-4-6-12-6t-11 6l-348 348q-6 4-6 11t6 12l453 455q8 8 53 8h299q11 0 20-9t9-20z m41 0q-2 9-9 26t-12 23-24 13-25 8h-299q-61-2-80-20l-455-455q-18-17-18-41t18-41l347-347q18-18 41-18t41 18l455 455q20 19 20 80v299z m-508-338q4 17 12 34t23 32 35 22 37 4 37-11 34-23q35-37 35-79t-43-85l-27 30q27 29 31 56t-20 51q-9 10-21 16t-24 6-25-4-19-14q-8-8-14-16t-8-17l-8-16q-2-10-4-17l51-53-13-16-45 45-8-16t-12-15q-10-10-22-16t-26-8-24-2q-14 2-28 2 14-5 25-10t20-15 16-20 10-17q6-8 10-18 5-7 12-15t19-12 23-6l-8-35q-19 2-35 11t-27 22q-10 8-16 18-4 10-11 21-6 10-12 21t-16 20-20 15-25 7l6 37q12-2 25-3t25 2 24 9 22 15q8 8 14 19t9 18l-29 30 16 13z" horiz-adv-x="1000" />
<glyph glyph-name="uniF17E" unicode="&#xe999;" d="m619 200q10-32 56-54t94-38 87-56 44-102h-759q4 62 44 102t88 56 93 38 56 54q2 19 2 84-12 6-27 37t-18 60q-29 2-35 57-4 29 15 41-17 76-15 139t46 102 128 42q72 0 91-35 45-6 69-37t23-74-5-76-14-61q19-12 15-41-6-55-35-57-4-29-18-60t-27-37q0-65 2-84z" horiz-adv-x="1000" />
<glyph glyph-name="uniF17F" unicode="&#xe99a;" d="m627 502l-127 332-127-332-355-19 275-223-92-344 299 194 299-194-92 344 275 223z m-127 221l100-258 277-15-215-176 70-268-232 151-232-151 70 268-215 176 277 15z" horiz-adv-x="1000" />
<glyph glyph-name="uniF182" unicode="&#xe99d;" d="m313 461l-43-66 289 154h-78q-108 0-168-88z m168 88v-39q66 0 113-47t47-113q0-47-26-86t-66-58l17-38q51 26 82 75t32 107q0 82-59 141t-140 58z m0 0v-39q66 0 113-47t47-113q0-47-26-86t-66-58l17-38q51 26 82 75t32 107q0 82-59 141t-140 58z m-20-599h39v121h-39v-121z m0 679h39v121h-39v-121z m299-259v-39h121v39h-121z m-96 193l27-29 86 86-29 27z m-453 84l-27-27 84-86 29 29z m480-481l-27-29 84-84 29 28z m-572 223v-39h301v39h-301z m102-119v-39h299v39h-299z m-102-119v-41h301v41h-301z" horiz-adv-x="1000" />
<glyph glyph-name="uniF183" unicode="&#xe99e;" d="m180-31q0 43 18 62t62 18 61-18 19-62-19-61-61-19-62 19-18 61z m-33 395l27-28 44 43q1 0 2 0 32 0 32 32 0 18-12 26v112h-41v-112q-11-8-11-26 0-3 0-5z m-108 46q0 92 44 136t137 44 136-44q15-14 25-34v-2h1q18-40 18-100 0-93-44-136t-136-43-137 43q-1 1-3 3v11h-9q-32 42-32 122z m721-240h201v-160q0-8-7-14t-14-5h-41q-4 43-30 68-31 31-89 31t-89-31q-25-25-30-68h-20q-8 0-15 5t-7 14v379q0 8 7 15t15 7h160q23 0 53-38v2q2-2 4-5h-98q-24 0-42-18t-19-41v-80q0-24 19-42t42-19z m0 161h127l49-67q5-8 5-10 6-7 14-25 4-11 5-20h-200q-6 0-13 7t-7 15v80q0 6 6 13t14 7z m-158-366q17-15 39-15h20q5-43 30-69 32-31 89-31t89 31q26 26 30 69h41q23 0 41 18t19 42v192q0 19-8 43-8 19-17 33l-6 10-84 111q-41 51-84 51h-160q-12 0-22-4v47q0 23-15 39-16 17-39 17h-162q-9 14-20 25-57 55-163 55t-163-55-57-163q0-90 39-144v-257q0-23 19-42t42-18h42q4-43 30-69 31-31 88-31t89 31q26 26 31 69h183q22 0 39 15z m-22 45v-4q0-6-5-11t-12-4h-183q-5 43-31 68-33 31-89 31t-88-31q-26-25-30-68h-42q-6 0-13 5t-7 14v217q54-37 140-37 106 0 163 57t57 164q0 57-17 99h142q5 0 9-6 6-4 6-11v-104-379z m120-60h158q-3-28-17-42-19-19-62-19t-61 19q-14 14-18 42z m158 41h-157q3 26 17 40 18 18 61 18t62-18q13-14 17-40z" horiz-adv-x="1000" />
<glyph glyph-name="uniF184" unicode="&#xe99f;" d="m119 383v-41q57 0 80-14t40-54 34-62 51-49 56-46 44-59 25-93q4-33 23-47t40-8 41 20 28 27 13 29 2 32-2 29-9 34-11 27-13 29-12 26q-18 37-12 56t37 16q24-4 64-11t69-11 61-4q39 0 65 24t26 55q0 13-3 43 44 25 44 74 0 35-27 62 27 30 27 61 0 43-46 74 5 25 5 43t-6 32-31 33-80 29-144 9q-112 0-185-11t-101-27-77-27-116-13v-39q76 0 127 12t78 26 97 28 177 12q64 0 110-5t67-12 33-17 11-15 1-13v-2q0-22-11-41l-12-20 21-9q41-16 41-47 0-28-27-41l-37-16 35-19q29-18 29-48t-33-44l-15-6 4-16q5-33 5-50 0-14-13-26t-39-12q-30 0-56 3t-66 10-68 11q-41 6-61-16t-20-52 15-61q15-33 22-49t16-41 7-44-10-34q-10-16-23-24t-22-3-12 21q-6 59-30 105t-51 69-59 51-45 41q-10 11-25 42t-27 50-47 37-87 17z" horiz-adv-x="1000" />
<glyph glyph-name="uniF185" unicode="&#xe9a0;" d="m654 463l-29-27 201-199 28 27z m200-27l-28 27-201-199 29-27z m-655-268v43h-138q-20 0-20 20v238q0 20 20 20h138v43h-138q-26 0-43-19t-18-44v-238q0-25 18-44t43-19h138z m-21 18l252-250q37-37 73-20t36 67v740q0 49-38 63t-69-20l-254-254 2 2q-20-17-20-49v-230q0-31 18-49z m27 31q-6 10-6 18v230l6 20 254 252q18 17 29 13t12-27v-740q0-28-11-33t-30 13l-254 252v2z" horiz-adv-x="1000" />
<glyph glyph-name="uniF186" unicode="&#xe9a1;" d="m820 429q0 40 40 40t40-40-40-40-40 40z m-41 120h41v301h-640v-301h41v262h558v-262z m41-699v440h-640v-440h640z m-41 400v-361h-558v361h558z m-580-220v41h-138q-10 0-16 6t-6 13v420q0 8 6 14t16 6h879q9 0 15-6t6-14v-420q-2-8-8-13t-13-6h-139v-41h139q25 0 42 17t18 43v420q0 26-18 43t-42 18h-879q-26 0-43-18t-18-43v-420q0-25 18-43t43-17h138z m500 99v41h-398v-41h398z m-80-80v41h-318v-41h318z m80-80v41h-398v-41h398z" horiz-adv-x="1000" />
<glyph glyph-name="uniF187" unicode="&#xe9a2;" d="m0-29v758h981 3 16v-758h-1000z m39 39h922v680h-922v-680z" horiz-adv-x="1000" />
<glyph glyph-name="uniF189" unicode="&#xe9a4;" d="m318 245q43 62 134 153t154 134q74-43 91-51 47-25 76-6 139 88 206 135 19 13 21 41t-16 53-39 52-60 61-65 33q-207-6-510-310t-310-510q0-26 33-65t61-60 53-39 52-16 41 21q82 120 135 206 20 31-4 76-10 17-53 92z m-41-10q47-80 57-102 14-23 8-35-53-86-135-203-2-2-6-4t-13-1-20 9q-25 17-77 67t-52 64q8 189 300 481t481 300q14 0 64-52t67-77q8-10 9-19t-1-14-4-6q-64-47-203-135-10-6-35 8l-102 57-11 6-10-6q-59-35-169-147t-148-170l-5-9z" horiz-adv-x="1000" />
<glyph glyph-name="uniF18A" unicode="&#xe9a5;" d="m881 690q29 0 55-24t25-52v-532q0-29-21-50t-53-22h-774q-31 0-52 22t-22 50v528q0 25 24 53t56 27h762z m0 41h-762q-51 0-85-40t-34-81v-528q0-46 33-80t80-33h774q47 0 80 33t33 80v532q0 47-36 82t-83 35z m-721-641v520h699v-520h-699z m-41-41h781v602h-781v-602z m-68 301q0 29 29 29t29-29-29-29-29 29z" horiz-adv-x="1000" />
<glyph glyph-name="uniF18B" unicode="&#xe9a6;" d="m318-117l38 14-34 80-37-14z m-46 49l15-37 80 33-15 37z m-94 109l37 16-33 80-37-15z m-45 51l15-37 81 33-16 37z m385-129l37 14-33 80-38-16z m-45 49l15-37 80 33-15 37z m246-129l37 14-33 80-37-14z m-47 49l16-37 80 33-16 37z m146 131l38 16-34 80-37-16z m-46 49l15-37 80 33-15 37z m-311 39h39v318h-39v-318z m-12 299v-39h61v39h-61z m0-241v-39h61v39h-61z m160 4l20 34-277 160-20-34z m-265 141l35-20 29 51-35 22z m207-119l35-22 31 53-35 20z m-219 12l20-34 277 160-20 34z m250 87l35 20-31 53-35-22z m-209-121l35 22-29 51-35-20z m348 37v-41q82 0 140 59t59 142-59 141-140 59q-33 0-69-12-19 68-75 110t-128 42q-86 0-147-61t-62-149q0-10 6-12l2 2h-8q-66 0-113-47t-47-113 47-114 113-47v41q-50 0-86 36t-35 85 35 85 86 35q8 0 20-2l27-6-4 29q-4 14-4 28 0 70 50 120t120 49q65 0 112-41t56-101l4-27 26 11q35 20 74 20 66 0 113-47t47-113-47-114-113-47z" horiz-adv-x="1000" />
<glyph glyph-name="uniF18C" unicode="&#xe9a7;" d="m420 49h-39q0-23 15-41t44-17h121q29 0 44 17t14 41h-39q0-19-19-19h-121q-20 0-20 19z m0 282h-39q0-24 15-42t44-19h121q29 0 44 19t14 42h-39q0-20-19-20h-121q-20 0-20 20z m0 320h-39q0-24 15-42t44-19h121q29 0 44 19t14 42h-39q0-22-19-22h-121q-12 0-16 5t-4 17z m420-660q0-26-18-43t-43-18h-558q-26 0-43 18t-18 43v179h680v-179z m41 0v699q0 41-29 70t-73 30h-558q-43 0-73-30t-29-70v-699q0-43 29-73t73-29h558q43 0 73 29t29 73z m-41 478v-260h-680v260h680z m0 41h-680v180q0 25 18 43t43 17h558q26 0 43-17t18-43v-180z" horiz-adv-x="1000" />
<glyph glyph-name="uniF18D" unicode="&#xe9a8;" d="m721 231h-481q-50 0-86 35t-35 84 35 84 86 35h20l27-6-4 28q-4 15-4 29 0 70 50 120t120 50q65 0 112-41t56-102l4-27 26 12q35 17 74 17 66 0 113-47t47-112-47-112-113-47z m0-41q82 0 140 58t59 142-59 142-140 58q-33 0-69-11-19 66-75 109t-128 43q-86 0-147-62t-62-149q0-10 6-12l2 2h-8q-66 0-113-47t-47-113 47-113 113-47h481z m-22-180v-51l-39-29v51z m41 80l-121-90v-150l121 90v150z m-201 100l-119-90v-150l27 21q2 0 4 2l88 67v150z m-39-80v-49l-39-31v51z m-248-41l-92-69v-150l28 21v-2 2h2l1 2 88 67v150z m-12-59v-51l-41-29v51z" horiz-adv-x="1000" />
<glyph glyph-name="uniF18E" unicode="&#xe9a9;" d="m0 350q0-207 147-353 139-138 333-145 10-2 20-2t20 2q194 7 334 145 146 146 146 353t-146 353q-140 138-334 145-10 2-20 2t-20-2q-194-7-333-145-147-146-147-353z m481 20h-201q3 94 35 192 3 6 5 12 96-21 161-24v-180z m39 0v180q65 3 160 24 3-6 5-12 32-98 35-192h-200z m-39-39v-181q-66-3-161-24-2 6-5 12-32 98-35 193h201z m39 0h200q-3-95-35-193-2-6-5-12-96 21-160 24v181z m-39 260q-61 2-147 21 30 75 68 129 39 52 74 66 2 0 5 0v-216z m39 0v216q2 0 4-1 36-13 74-65 38-54 68-129-86-19-146-21z m0-482q60-2 146-21-30-75-68-129-41-55-78-67v217z m-39 0v-217q-38 12-79 67-38 54-68 129 86 19 147 21z m-240 261h-201q6 147 97 261 48-24 146-48-2-6-4-11-35-107-38-202z m56 251q-86 21-133 41 5 5 10 10 100 100 230 126-12-12-24-28-48-63-83-149z m406-1q-34 87-83 150-11 15-23 27 127-27 225-125 6-5 11-11-46-20-130-41z m14-37q95 24 144 46 90-112 96-259h-198q-3 95-38 202-2 6-4 11z m42-252h198q-5-148-94-261-48 23-146 47 2 6 4 11 35 107 38 203z m-56-252q86-21 133-41-7-7-14-14-100-100-229-126 13 14 27 32 48 63 83 149z m-406 1q35-87 83-150 14-19 28-33-132 25-234 127-6 6-12 12 46 22 135 44z m-14 37q-100-25-149-49-90 114-95 263h202q3-96 38-203 2-5 4-11z" horiz-adv-x="1000" />
<glyph glyph-name="uniF18F" unicode="&#xe9aa;" d="m641 731v-41h199v-199h41v240h-240z m-75-287l28-28 271 270-29 29z m75 287v-41h199v-199h41v240h-240z m-75-287l28-28 271 270-29 29z m-207-475v41h-199v199h-41v-240h240z m75 287l-28 28-271-270 29-29z m-75-287v41h-199v199h-41v-240h240z m75 287l-28 28-271-270 29-29z m447-47h-41v-199h-199v-41h240v240z m-287 75l-28-28 270-271 29 29z m287-75h-41v-199h-199v-41h240v240z m-287 75l-28-28 270-271 29 29z m-475 207h41v199h199v41h-240v-240z m287-75l28 28-270 271-29-29z m-287 75h41v199h199v41h-240v-240z m287-75l28 28-270 271-29-29z" horiz-adv-x="1000" />
<glyph glyph-name="uniF190" unicode="&#xe9ab;" d="m695 758l-31 24-92-114 246-244 133 90-21 33-108-72-195 197z m-64-133l-29 30q-61-61-136-83t-206-23h-16l-4-15q-17-88-62-238t-80-255l-37-105-14-39 39 13q400 141 598 180l15 4v16q0 131 23 206t83 136l-30 27q-64-64-88-146t-27-208q-185-39-549-164 125 364 164 549 123 2 206 27t150 88z m-545-662l27-27 342 340-29 29z m357 367q0 20 8 28t29 8 27-8 7-28-7-28-27-7-29 7-8 28z m-39 1q0-36 20-55t55-20 54 20 20 55-20 54-54 20-55-20-20-54z" horiz-adv-x="1000" />
<glyph glyph-name="uniF191" unicode="&#xe9ac;" d="m920 411v-121h-61v-100q0-25-17-43t-41-18h-641q-25 0-43 18t-17 43v320q0 26 17 43t43 18h641q23 0 41-18t17-43v-99h61z m41 39h-61v60q0 41-29 71t-70 29h-641q-41 0-70-29t-29-71v-320q0-41 29-70t70-30h641q41 0 70 30t29 70v60h61v200z m-781 60h-39v-320h39v320z m80 0h-39v-320h39v320z m80 0h-39v-320h39v320z m80 0h-39v-320h39v320z" horiz-adv-x="1000" />
<glyph glyph-name="uniF192" unicode="&#xe9ad;" d="m647 350h-247v119h81q15 0 48-13t49-28q39-33 69-78z m-166 160h-122v-199h354l-16 27q-11 24-42 64t-49 55q-20 18-62 36t-63 17z m-221-41v-119h-119v100q0 7 6 13t13 6h100z m-160-19v-139h201v199h-141q-23 0-42-18t-18-42z m759-440v119q0 34-13 99t-28 96-46 82-53 71-58 52-57 44-54 24-50 13h-359q-20 0-52-15t-46-28-28-46-15-52v-369q0-18 13-49t25-43 44-25 49-14h148q1-38 41-78 41-41 79-41t80 41q40 40 41 78h240 99 122v41h-122z m-39 0h-60-251q-11 19-30 39-41 41-80 41t-79-41q-20-20-30-39h-159q-14 0-34 9t-31 18-18 30-9 33v369q0 14 11 36t21 34 34 21 36 11h359q10 0 37-11t45-22q55-34 108-88 17-20 48-67t44-76 26-88 12-90v-119z m-500-41h161q-1-28-27-54-26-26-55-26t-53 26q-25 26-26 54z m146 41h-132q5 7 12 14 25 25 53 25t55-25q7-7 12-14z" horiz-adv-x="1000" />
<glyph glyph-name="uniF193" unicode="&#xe9ae;" d="m600 129q0-37 21-58t59-22 58 22 22 58-22 59-58 21-59-21-21-59z m41 1q0 23 7 32t32 8 32-8 9-32-9-31-32-9-32 9-7 31z m-401-1q0-37 22-58t58-22 59 22 21 58-21 59-59 21-58-21-22-59z m39 1q0 23 9 32t32 8 32-8 7-32-7-31-32-9-32 9-9 31z m0 404q0 15 22 15h80 238 80q22 0 22-15v-166q0-18-22-18h-398q-22 0-22 18v166z m-39 0v-166q0-26 18-41t43-16h398q26 0 43 16t18 41v166q0 23-18 40t-43 16h-39v39q0 18-12 30t-29 11h-238q-18 0-29-11t-12-30v-39h-39q-26 0-43-16t-18-40z m596-680l25 31-94 80q17 9 32 24 41 39 41 95v573q0 54-41 93t-100 40h-20q-2 26-18 41-18 19-51 19t-51-19q-17-15-20-41h-78q-3 26-20 41-19 19-51 19t-51-19q-16-15-18-41h-20q-59 0-100-40t-41-93v-573q0-56 41-95 15-15 32-24l-94-80 25-31 115 97q10-1 22-1h398q12 0 22 1z m-255 936q1 9 5 14 6 7 24 7t25-7q4-5 5-14h-59z m-221 0q1 9 5 14 6 7 25 7t24-7q4-5 5-14h-59z m184-40q5-12 15-21 19-20 51-20t51 20q9 9 14 21h24q43 0 73-28t29-65v-573q0-39-29-66t-73-27h-398q-43 0-72 27t-30 66v573q0 37 30 65t72 28h24q5-12 14-21 18-20 51-20t51 20q10 9 15 21h88z m75-160h-238v39h238v-39z" horiz-adv-x="1000" />
<glyph glyph-name="uniF194" unicode="&#xe9af;" d="m600 198v-2-4q15-39 58-65t87-37 84-42 48-79h-715q10 47 49 76t84 42 88 39 58 66v4 2q2 21 2 86v11l-9 6q-2 2-10 14t-16 32-10 36l-1 18h-18q-12 0-16 39-2 17 6 21l12 8-4 16q-64 254 141 258 60 0 74-26l6-8 9-2q36-5 54-31t20-62-4-69-15-60l-4-14 14-10q8-4 6-21t-7-27-7-10l-4-2h-15l-2-18q-2-21-15-49t-21-33l-9-6v-11q0-65 2-86z m39 6q-2 25-2 70 29 31 43 92 21 15 27 29t10 41-12 49q10 35 14 68t2 75-28 74-72 43q-33 37-103 37t-116-28-60-69-19-94 13-106q-16-22-14-49 6-47 37-70 16-61 45-92 0-45-2-70-7-18-53-39t-94-39-90-64-46-110v-22h803l-2 22q-4 64-46 111t-90 66-94 39-51 36z" horiz-adv-x="1000" />
<glyph glyph-name="uniF195" unicode="&#xe9b0;" d="m119 358v-41q53 0 87 17t47 38 27 49 25 42q11 14 45 41t59 51 51 69 30 105q2 18 12 21t22-3 23-24q8-16 10-34t-7-44-16-40-22-50q-14-29-15-60t20-53 61-16q28 4 68 11t66 10 56 3q25 0 39-12t13-25l-5-51-4-16 15-6q33-13 33-44t-29-48l-35-19 37-16q27-13 27-41 0-31-41-47l-21-9 12-20q11-19 11-41v-2q0-8-1-13t-11-15-33-17-67-12-110-5q-108 0-177 12t-97 28-78 26-127 12v-39q69 0 116-13t77-27 101-27 185-11q88 0 144 9t80 29 31 33 6 32-5 43q46 31 46 74 0 32-27 61 27 27 27 62 0 49-44 75 3 29 3 43 0 31-26 54t-65 24q-32 0-61-4t-69-11-64-11q-31-4-37 16t12 57q0 2 12 25t13 29 11 28 9 33 2 29-2 32-13 29-28 27-41 20-40-8-23-47q-4-53-25-93t-44-59-56-45-51-50-34-62-40-53-80-15z" horiz-adv-x="1000" />
<glyph glyph-name="uniF196" unicode="&#xe9b1;" d="m721 450q66 0 113-47t47-113-47-114-113-47h-481q-50 0-86 36t-35 84 35 85 86 36q8 0 20-2l27-4-4 27q-4 16-4 29 0 71 50 120t120 50q65 0 112-41t56-101l4-28 26 12q35 18 74 18z m0 41q-33 0-69-12-19 66-75 108t-128 42q-86 0-147-61t-62-148q0-9 6-11h2q-4 2-8 2-66 0-113-47t-47-114 47-113 113-47h481q82 0 140 59t59 141-59 142-140 59z" horiz-adv-x="1000" />
<glyph glyph-name="uniF197" unicode="&#xe9b2;" d="m656 491v39h-175v-39h175z m0-201v41h-175v-41h175z m0-200v39h-175v-39h175z m0 600v41h-175v-41h175z m0-100v39h-76v-39h76z m0-201v41h-76v-41h76z m0-199v41h-76v-41h76z m0-199v39h-76v-39h76z m-297-102h241q27 0 52 6t51 20 41 44 16 71v701q0 21-18 40t-43 19h-588q-37 0-48-24t3-51q96-166 96-302 0-286 46-405t151-119z m0 41q-52 0-85 37t-52 147-21 299q0 148-99 322-4 8-6 13 6 2 15 2h588q6 0 14-7t8-12v-701q0-100-121-100h-241z m334 860v-40h108q99 0 99-121v-220h40v220q0 71-36 116t-103 45h-108z" horiz-adv-x="1000" />
<glyph glyph-name="uniF198" unicode="&#xe9b3;" d="m859 450v-299q0-10-5-16t-14-6-14 6-6 16v299q0 7 6 13t14 6 14-6 5-13z m41 0q0 25-17 43t-43 17-43-17-18-43v-299q0-26 18-43t43-18 43 18 17 43v299z m-339-520h-100q-10 0-16 6t-5 14 5 13 16 6h100q7 0 13-6t6-13-6-14-13-6z m0-41q23 0 41 18t17 43-17 43-41 17h-100q-25 0-43-17t-18-43 18-43 43-18h100z m-420 580h39q0 133 93 227t227 94 227-94 93-227h39q0 151-105 256t-254 106-254-106-105-256z m740 0v-39q29 0 55-37t25-93-25-93-55-37v-41q53 0 86 51t33 119-33 119-86 51z m-781-19v-299q0-26 17-43t43-18 43 18 18 43v299q0 25-18 43t-43 17-43-17-17-43z m41 0q0 7 6 13t13 6 14-6 6-13v-299q0-10-6-16t-14-6-13 6-6 16v299z m-22-20v39q-53 0-86-51t-33-119 33-119 86-51v41q-29 0-54 37t-26 93 26 93 54 37z m740-320h-39q0-67-36-104t-104-37h-80v-39h80q82 0 131 49t48 131z" horiz-adv-x="1000" />
<glyph glyph-name="uniF199" unicode="&#xe9b4;" d="m199 168v43h-138q-20 0-20 20v238q0 20 20 20h138v43h-138q-26 0-43-19t-18-44v-238q0-25 18-44t43-19h138z m-21 18l252-250q37-37 73-20t36 67v740q0 49-38 63t-69-20l-254-254 2 2q-20-17-20-49v-230q0-31 18-49z m27 31q-6 10-6 18v230l6 20 254 252q18 17 29 13t12-27v-740q0-28-11-33t-30 13l-254 252v2z m414 264l-10-39q32-8 51-33t20-59-20-59-51-33l10-39q43 12 72 48t30 83-30 83-72 48z m88 123l-17-35q58-31 94-90t36-129-36-129-94-90l19-35q68 37 109 106t41 149-41 148-111 105z m72 107l-17-35q90-47 144-134t55-192-55-192-144-134l17-35q100 51 161 147t62 214-62 214-161 147z" horiz-adv-x="1000" />
<glyph glyph-name="uniF19A" unicode="&#xe9b5;" d="m791 174l-35-19q4-8 4-16 0-12-9-20t-21-9-22 9-9 20q0 22 20 29l-16 36q-43-18-43-65 0-27 21-48t50-20 49 20 21 48q0 20-10 35z m-656-27q-12-8-22-21t-9-26 17-21l35-14q41-16 98 6l371 133q16-6 49-18 74-27 112-41t93-28 82-13 33 21q20 47-21 116t-131 103l-65 25t-156 60-184 72-162 63-72 28q-10 4-13 30-12 85-14 107-2 18-23 37t-42 22-37-30q-6-13-70-177-45-118 330-264l35-14z m824-2q-57 0-326 100l-8 2-385-139q-43-16-68-6l-16 10h2l295 201-35 14-68 27q-116 45-191 89t-99 74-19 48q65 162 70 180l2 2q4 0 13-8t9-14q4-23 15-109 8-49 38-61l638-248q72-29 105-77t28-85z m-383 264l37 19-125 238q-29 55-68 71l-37 13q-26 10-34-14t1-44l48-209 40 10-51 209v5l17-7q8-4 24-20t23-31z" horiz-adv-x="1000" />
<glyph glyph-name="uniF19B" unicode="&#xe9b6;" d="m385 112v-41h424q168 0 172 56l-20 2q-18-17-152-17h-424z m578 478q16 0 26 9t11 22-11 21-26 9l-383-18-383 18q-15 0-26-9t-11-21 11-22 26-9l383 18z m-363 61h-39v-98h39v98z m19-121q135 0 238-67t104-152q0-29-10-50t-30-34-42-21-59-11-65-4-75-1h-45-70t-52 5-42 15-22 31-9 49v76l-16 4q-55 13-313 80h371l6 7q51 73 131 73z m0 41q-96 0-156-80h-367q-37-4-35-34t21-41q10-1 131-34t187-48v-44q0-26 4-46t16-36 21-25 32-17 33-9 41-5 42-2 46 0 45 1h62t61 3 62 8 51 16 46 28 26 43 12 62q0 109-117 185t-264 75z m373-254l-29 27q-16-17-62-25t-161-8q-29 0-45 15t-15 40q0 68 10 98t25 35 57 5v41q-73 0-102-37t-29-142q0-41 27-69t72-27q123 0 175 9t77 38z m0 0l-29 27q-16-17-62-25t-161-8q-29 0-45 15t-15 40q0 68 10 98t25 35 57 5v41q-73 0-102-37t-29-142q0-41 27-69t72-27q123 0 175 9t77 38z m-806 80l-36 21q-17-29-50-29-26 0-43 18t-18 43 18 43 43 17q39 0 54-37l37 18q-25 58-91 58-41 0-71-29t-29-70 29-71 71-29q56 0 86 47z" horiz-adv-x="1000" />
<glyph glyph-name="uniF19C" unicode="&#xe9b7;" d="m801 389l-2-23h25q55-2 96-41t41-97-41-98-98-40h-629q-64 0-109 45t-45 108q0 52 32 93t81 55l14 4v20q0 42 30 72t72 29 70-29l21-24 12 30q24 66 81 106t128 40q92 0 157-65t66-158q0-11-2-27z m41 16q2 6 2 11 0 110-77 186t-187 76q-76 0-139-40t-97-106q-39 23-76 23-57 0-96-38t-45-93q-61-23-94-71t-33-110q0-80 57-137t136-57h629q75 0 126 53t52 127q0 68-48 118t-110 58z" horiz-adv-x="1000" />
<glyph glyph-name="uniF19D" unicode="&#xe9b8;" d="m674 295l-27 30-147-147-146 147-28-30 174-173z m-154 516h-39v-635h39v635z m-180-320v39h-199v-680h718v680h-199v-39h160v-602h-640v602h160z" horiz-adv-x="1000" />
<glyph glyph-name="uniF19E" unicode="&#xe9b9;" d="m520-9v660q0 23 17 41t43 17h320q26 0 43-17t18-41v-580q0-26-18-43t-43-18h-320q-31 0-60-19z m60-22h320q41 0 71 29t29 73v580q0 41-29 70t-71 29h-320q-41 0-70-29t-29-70v-741q7 0 18-4t16-5 5 9q0 24 17 42t43 17z m-160 41h-320q-26 0-43 18t-18 43v580q0 23 18 41t43 17h320q25 0 43-17t18-41v-660q-30 19-61 19z m0-41q25 0 43-17t18-42h39v741q0 41-30 70t-70 29h-320q-41 0-71-29t-29-70v-580q0-43 29-73t71-29h320z" horiz-adv-x="1000" />
<glyph glyph-name="uniF19F" unicode="&#xe9ba;" d="m986-142l-13 39q-14-6-30-6-60 0-99 29l-12 10-12-10q-39-29-99-29t-98 29l-12 10-13-10q-37-29-98-29t-98 29l-13 10-12-10q-37-29-98-29t-99 29l-12 10-12-10q-39-29-99-29-16 0-34 2l-5-39q19-2 39-2 62 0 111 29 47-29 110-29t111 29q49-29 111-29t111 29q47-29 111-29t110 29q49-29 111-29 24 0 43 6z m0 80l-13 37q-14-4-30-4-12 0-24 1 32 18 51 48 30 49 30 109v102h-119v-102q0-19-20-39t-41-19h-89q19 0 34 12t14 33v46q2 6 2 12v112l-2 4q0 0 0 0 14 1 27 10 14 11 14 31t-14 40-46 18h-20q-32 82-39 98-11 27-60 46t-121 18q-71 0-120-18t-62-46q-7-12-40-98h-23q-31 0-45-18t-15-40 15-31q13-9 30-10 0 0 0 0v-4-104-8-58q0-20 15-33t36-12h-131q-18 0-39 27t-22 53v312l121 180v207h-240v-715q0-64 36-109 26-32 63-51-20-4-42-4-16 0-34 2l-5-39q19-2 39-2 62 0 111 29 47-29 110-29t111 29q49-29 111-29t111 29q47-29 111-29t110 29q49-29 111-29 24 0 43 6z m-336 332h49q20 0 20-20 0-13-20-25-25-16-49-16-13 0-22 9t-9 22 9 21 22 9z m-259 0q11 0 20-9t9-21-9-22-20-9q-26 0-49 16-22 12-22 25 0 20 20 20h51z m-210 359l-101-152v-326q0-41 30-81t70-40h640q39 0 70 30t30 69v61h41v-61q0-111-96-135 1-4 2-8-12 6-23 14l-12 10-12-10q-39-29-99-29t-98 29l-12 10-13-10q-37-29-98-29t-98 29l-13 10-12-10q-37-29-98-29t-99 29l-12 10-12-10q-7-5-14-9l3 9q-106 32-106 135v494h142z m18 41h-160v141h160v-141z m522-347q8-21 17-45v-104q0-4-4-4h-427q-6 0-6 4v8 96q9 24 17 46 1-1 2-1 20-12 55-12h289q37 0 56 12 0 0 1 0z m-25 64q0 0-1 0 1-1 2-1 4-11 8-22 0-1 0-1-2-13-41-13h-289q-37 0-40 13 0 1 0 3 4 10 7 20 1 0 2 1l-1 0q27 71 32 80 2 6 18 15t50 17 78 9 77-9 50-17 16-13q6-14 32-82z m-421-56h-11-8q0 7 1 10t6 6 12 3h8q-4-9-8-19z m481 19h4q10 0 14-3t5-6v-10h-6-10q-4 10-7 19z m-76-221h54q3 0 6 1v-14q0-6-9-6h-41q-10 0-10 6v13z m10-58h-340q19 0 35 12t15 33v13h241v-13q0-20 14-33t35-12z m-389 59q3-1 6-1h52v-13q0-6-9-6h-39q-10 0-10 6v14z" horiz-adv-x="1000" />
<glyph glyph-name="uniF1A0" unicode="&#xe9bb;" d="m961 536v-371l-221 117v136z m39 68l-301-162v-184l301-162v508z m-260-475v442q0 41-29 70t-70 29h-541q-41 0-71-29t-29-70v-442q0-41 29-70t71-29h541q41 0 70 29t29 70z m-41 0q0-23-17-41t-41-17h-541q-26 0-43 17t-18 41v442q0 23 18 41t43 17h541q23 0 41-17t17-41v-442z" horiz-adv-x="1000" />
<glyph glyph-name="uniF1A1" unicode="&#xe9bc;" d="m900 407q-2-2-5-15t-10-32-8-37q-2-24-1-41t2-34l1-15q-4-33-26-51t-60-14q-35 4-105 45t-135 92l-49 37 18-58q66-229 48-293-11-38-37-52t-58-5q-2 0-15 7t-31 14-36 14q-18 4-39 7t-37 4-16 1q-33 10-47 35t-4 63q18 64 184 216l68 65-88-31q-211-71-287-55-39 8-56 33t-8 61q0 2 5 14t14 33 12 39 6 39 2 37v17q7 34 34 49t65 8q57-12 205-148l59-53-25 74q-63 180-51 244 8 39 33 57t60 10q2 0 16-6t34-13 38-11 42-5 36 0 18-1q35-5 52-31t9-64q-14-71-121-194l-57-64 78 33q148 63 201 55 39-4 57-26t15-54z m40-4q5 49-25 84t-81 41-150-31q70 93 82 152 9 53-16 93t-76 49q-10 2-43 2t-53 4-49 17-39 13q-50 9-90-18t-50-80q-12-59 29-195-113 97-170 109-53 12-94-13t-52-75q-2-8-2-41t-6-53q-4-19-17-47t-15-39q-11-50 16-89t80-51q67-14 227 31-117-115-135-176-14-52 9-94t71-52q8-4 40-6t52-8q17-4 45-19t37-16q49-14 89 11t53 75q20 66-33 258 145-102 213-110 53-6 90 22t43 76q0 10-3 41t1 49q2 19 11 48t11 38z m-188-360q94-74 184-113-10-21-26-21-15 5-61 43t-97 91z m-195 258l-34-21q83-145 208-272t167-137q38-9 64 24t9 60l-4 6-6 2q-160 65-336 256z" horiz-adv-x="1000" />
<glyph glyph-name="uniF1A2" unicode="&#xe9bd;" d="m438 370q0 21 22 21t22-21-22-22-22 22z m-176-172q-6-4-13-10t-16-16-6-22 15-25q12-9 20-30t8-38q0-31-29-69t-89-38-87 34-26 69q0 74 76 108 12 5 50 20t60 25 54 33 63 54q28 32 52 74l21 18 374 268q78 58 156 23-82-60-254-187-157-116-240-179l-28-18q-131-79-161-94z m-79 435q-9-11-23-11-15 0-29 11t-16 28q0 2 0 5 0 12 8 20 10 10 24 10 17 0 29-10t14-25q0-3 0-6 0-12-7-22z m-78-29q24-22 55-22 33 0 53 26 16 21 16 48 0 5 0 10-4 32-28 50t-54 19-53-24q-18-19-18-45 0-5 0-9 4-32 29-53z m907-561l-428 317 428 316-20 16q-54 39-105 37t-86-22l-35-21-317-227q-141 85-168 100-6 2-11 6 39 43 39 98 0 15-7 38t-24 48-49 44-77 18q-80 0-116-48t-36-97q0-99 100-142 13-8 48-21t53-22 48-27 52-42q21-23 41-53-12-19-26-34-25-30-56-50t-51-31-59-26-50-20q-100-45-100-145 0-47 36-95t116-48q43 0 77 18t49 43 24 48 7 38q0 57-39 98l11 8q34 17 168 98l317-227q4-4 12-9t37-17 52-16q10-2 21-2 18 0 40 4 35 8 64 34z m-223 24l-305 219 71 46 390-289q-21-9-45-10-3 0-7 0-19 0-34 4-17 4-35 11t-24 12-11 7z m-599-2q0-3 0-6-2-16-14-24t-29-9q-16 0-25 10-7 8-7 18 0 3 0 5 2 16 16 27t29 12q14 0 23-12 7-9 7-21z m11-61q24 20 28 51 0 5 0 10 0 26-16 48-20 26-53 26-31 0-55-22t-29-54q0-5 0-9 0-26 18-46 21-23 53-23t54 19z m163 393q-21 30-46 53-25 23-55 41t-50 27-54 23l-44 18q-76 33-76 107 0 36 26 70t87 34 89-38 29-69q0-18-8-39t-20-28q-13-14-15-26t6-23 16-15 13-8q27-16 150-90l-13-11-34-24q0-1-1-2z" horiz-adv-x="1000" />
<glyph glyph-name="uniF1A3" unicode="&#xe9be;" d="m39 110v560h922v-560h-922z m-39-39h1000v638h-1000v-638z m779-80v39h-558v-39h558z m-119 461q-39 0-73 19t-58 20q-9 0-9-22v-199q0-80-80-80-49 0-65 17t-16 43q0 61 81 61 27 0 34 9t7 30v221q0 19 19 19 33 0 78-20t82-21q20 0 20-19v-61q0-8-5-13t-9-4h-6z" horiz-adv-x="1000" />
<glyph glyph-name="uniF1A4" unicode="&#xe9bf;" d="m984 266q30 27 8 63l-52 82 31 91q13 38-22 59l-84 47-15 96q-4 17-17 29t-30 12l-98 3-57 79q-25 33-60 15l-88-43-88 43q-35 16-60-15l-57-79-98-3q-17 0-30-12t-17-29l-15-96-84-47q-35-21-22-59l32-91-53-82q-22-36 8-63l70-66-8-96q-2-18 8-32t27-21l94-27 37-88q16-37 55-29l96 19 74-60q13-12 31-12t31 12l75 60 95-19q18-4 33 4t22 25l39 88 92 27q17 6 27 21t8 32l-8 96z m-27 27l-82-78 8-115q2-8-8-12l-109-31-45-105q-4-8-12-6l-113 21-88-72q-4-2-8-2t-8 2l-88 72-113-21q-8-2-12 6l-45 105-109 31q-10 4-8 12l8 115-82 78q-6 8-2 14l63 98-38 109q-3 8 4 12l100 58 20 114q0 8 9 9l116 4 68 92q6 8 14 4l103-51 104 51q7 4 13-4l69-92 115-4q10-1 10-9l19-114 100-58q8-4 4-12l-36-109 61-98q4-6-2-14z m-642 106q-6 16-6 61t6 60q15 47 68 47t68-47q6-14 6-60t-6-61q-15-47-68-47t-68 47z m101 10q2 9 2 50t-2 51q-8 22-33 22t-31-22q-4-10-4-51t4-50q5-22 31-22t33 22z m180 154q2 6 10 6h27q8 0 4-6l-237-408q-3-6-9-6h-30q-5 0-2 6z m-57-306q0 46 4 60 16 47 69 47t70-47q4-14 4-60t-4-61q-18-47-71-47t-68 47q-4 15-4 61z m72-73q26 0 34 22 2 9 2 50t-2 53q-8 20-34 20t-31-20q-4-12-4-53t4-50q6-22 31-22z" horiz-adv-x="1000" />
<glyph glyph-name="uniF1A5" unicode="&#xe9c0;" d="m115 43l-33 24q-21-35-21-76 0-59 41-100t98-41 99 41 41 100q0 13-2 27l-39-8q2-10 2-19 0-43-29-73t-72-29-71 29-29 73q0 29 15 52z m125-52q0-18-11-30t-29-11-28 11-12 30q0 11 6 21l-33 22q-14-20-14-43 0-34 24-57t56-24 57 24 23 57h-39z m500 0h-41q0-59 41-100t100-41 100 41 41 100q0 50-36 91l-29-27q24-27 24-64 0-43-30-73t-70-29-70 29-30 73z m71 64l-32-25q24-30 47-53l30 27q-22 22-45 51z m-567-45l-31 26q-14-18-27-32l29-27q14 16 29 33z m436-19h-9t-6 8-5 31q0 56 44 97t105 41q50 0 87-14t50-31 15-27v-2l-2-4-17 1t-37 1-51-6-61-19q-51-20-76-39t-29-29-8-8z m0-41q23 0 35 11t33 33 59 38q27 9 66 13t65 3 43 10 19 38q0 43-54 78t-137 35q-77 0-133-52t-57-127q0-43 19-62t42-18z m-598 316l-33 24q-49-71-49-161 0-39 44-68t118-44 148-21 153-5q102 0 178 17l-8 39q-74-17-170-17-164 0-294 30t-130 69q0 36 11 70t20 51z m531 242l-17 37q-78-33-84-37-41-19-23-52t56-26q18 4 47 26 29-88 29-163 2-164-140-164h-31-26t-19 3-14 10-5 20 1 33 11 50l2 5-2 6q-3 34-39 45l-11-37q6-4 11-14-9-39-11-67t7-45 19-27 31-15 35-5 41-1q97 0 139 59t42 144q-2 100-43 204z m180-312l39 10q-4 17-16 35-3 7-26 41t-38 58-35 68-31 81l-38-12q12-41 33-86t37-71 39-60 26-41q8-12 10-23z m-23 338q0 70-67 70-43 0-76-19t-33-51 33-52 76-19q67 0 67 71z m-39 0v-13-9t-1-5-4-3-8-1-15-1q-21 0-38 6t-24 13-8 12 8 11 24 14 38 7h17t8-3 3-5v-10-13z m-532-244q-117 0-158 17 2 6 5 12t6 9l3 3h289q10 0 15-22-43-19-160-19z m0-40q43 0 69 1t61 5 54 16 17 31q0 24-14 45t-42 22h-289q-26 0-40-22t-15-45q0-19 17-31t51-16 61-5 70-1z m602-260q0 22 8 31t31 9 32-9 9-31-9-32-32-8-31 8-8 32z m-41 1q0-38 21-59t59-22 58 22 22 59-22 58-58 22-59-22-21-58z" horiz-adv-x="1000" />
<glyph glyph-name="uniF1A6" unicode="&#xe9c1;" d="m1000-70v840h-1000v-840h1000z m-39 801v-762h-922v762h922z m-41-721v680h-840v-680h840z m-39 641v-602h-762v602h762z m-240-161q0 59 59 59t60-59-60-60-59 60z m-555-245l27-30 246 227 206-225 31 26-235 255z m420-61l27-27 147 144 207-205 27 27-234 235z" horiz-adv-x="1000" />
<glyph glyph-name="uniF1A7" unicode="&#xe9c2;" d="m39 730q0 28 26 55t55 25 54-26 25-54-25-54-54-25-55 25-26 54z m-39 0q0-38 41-79t79-41 79 41 41 79-41 79-79 41-79-41-41-79z m633-712l-426 426 2-51q0-23 9-67t16-66l-2 4q6-27 3-58t-6-36q-34-31-94-78-63-51-72-60-20-22-12-68t32-70 70-33 68 10q11 12 60 75 49 60 80 92 4 5 34 8t52-1q22-7 67-16t70-9z m-379 322l277-277q-37 8-68 19h-2-2q-27 6-70 1t-57-16q-33-33-82-96-47-61-57-70-7-10-35-4t-47 25-25 46 4 34q10 10 70 59 63 49 96 82 14 14 18 58t-2 71v2 2q-12 29-18 64z m328-281l2-39q59 2 150 39t125 70q26 26 64 82t52 88q11 33 18 101t1 102q-6 38-41 103t-64 94-95 63-101 41-103 0-100-18-88-51-82-64q-17-17-42-52t-34-56-21-76-14-91l39-2q4 33 15 84t18 68 31 50 36 46q23 24 76 59t80 47q29 11 90 17t93 0 89-37 84-57 58-84 37-89q4-34-2-93t-15-89q-12-29-47-81t-59-75q-31-32-113-64t-137-36z m0 0l2-39q59 2 150 39t125 70q26 26 64 82t52 88q11 33 18 101t1 102q-6 38-41 103t-64 94-95 63-101 41-103 0-100-18-88-51-82-64q-17-17-42-52t-34-56-21-76-14-91l39-2q4 33 15 84t18 68 31 50 36 46q23 24 76 59t80 47q29 11 90 17t93 0 89-37 84-57 58-84 37-89q4-34-2-93t-15-89q-12-29-47-81t-59-75q-31-32-113-64t-137-36z" horiz-adv-x="1000" />
<glyph glyph-name="uniF1A8" unicode="&#xe9c3;" d="m490 22q-31-31-77-31t-77 31l-225 225q-31 31-31 77t31 77l90 89q28-16 63-26 64-18 127-26 45-6 93-7-3 8-3 20 0 12 3 21-70 2-132 13-67 12-118 38l206 206 13 14 379-379z m30 408v41q-18 0-36 1 9 19 37 19 40 0 40-40t-40-40q-29 0-37 20 18-1 36-1z m-351 83l-85-85q-45-43-45-104t45-107l223-223q45-44 106-44t107 44l314 315q0-1 1-2 9-12 24-64t16-123q0-120 57-118 68 2 68 209 0 84-32 150t-78 100-92 59-77 31l-24 5-244 243-29-29q-130-2-215-39-90-39-90-115 0-55 40-94 5-5 10-9z m212 214l-181-183q-40 31-40 72 0 49 74 81 57 24 147 30z m473-398l35 35-130 129q9-4 19-8 48-22 85-53t68-90 30-131q0-50-6-89t-13-56-10-23q-18 20-18 77 0 58-9 102t-19 66-26 35q-3 3-6 6z" horiz-adv-x="1000" />
<glyph glyph-name="uniF1AA" unicode="&#xe9c5;" d="m420 250h-226q20 24 33 51 11 30 31 51 14 18 25 18h137v-120z m41 0v120h100q9 0 31-11t33-23v2l22-29q22-28 52-59h-238z m-361 0h-20q-25 0-53-28t-27-52v-166q0-8 7-21t13-20q17-13 41-13h42q8-29 38-59 41-41 79-41t79 41q30 30 38 59h326q8-29 38-59 41-41 79-41t79 41q31 30 39 59h42q25 0 42 18t18 42v119q0 18-27 41t-53 34q-70 29-156 46-8 0-35 28t-51 56l-24 30q-15 15-47 31t-46 16h-278q-11 0-30-12t-26-22q-22-27-37-58-12-28-34-51-17-18-37-18h-19z m660-39q81-18 144-45 14-5 28-14t21-15 8-8v-119q-2-8-8-14t-13-5h-42q-8 28-39 58-41 41-79 41t-79-41q-30-30-38-58h-326q-8 28-38 58-41 41-79 41t-79-41q-30-30-38-58h-42q-10 0-16 3t-6 10v166q0 16 13 28t28 11h20 19 641v2z m-616-261h153q-6-18-23-35-26-26-54-26t-54 26q-16 17-22 35z m153 41h-153q6 17 22 33 25 25 54 25t54-25q17-16 23-33z m406-41h153q-6-18-22-35-25-26-54-26t-54 26q-17 17-23 35z m153 41h-153q6 17 23 33 26 25 54 25t54-25q16-16 22-33z" horiz-adv-x="1000" />
<glyph glyph-name="uniF1AB" unicode="&#xe9c6;" d="m320 170v620h-160v-780h780v160h-620z m-41 580v-621h621v-80h-701v701h80z m561-734h-39v-66h-80v66h-41v-106h160v106z m-481 674v-39h442v-442h39v481h-481z m-193-160v41h-66v80h70v39h-109v-160h105z m514-321h41v362h-362v-41h321v-321z" horiz-adv-x="1000" />
<glyph glyph-name="uniF1AC" unicode="&#xe9c7;" d="m443 309q0 23 18 41t41 18 41-18 18-41-18-41-41-18-41 18-18 41z m-357 8q0-172 121-293t293-121 293 121 121 293-121 293-293 121-293-121-121-293z m-51-2q0 193 136 329t329 136 329-136 136-329-136-329-329-136-329 136-136 329z m446-106v420h39v-420h-39z m-20 541v100h78v-100h-78z m443-82l-86 86 57 57 86-86z m-89 30l46 47 32-34-45-46z" horiz-adv-x="1000" />
<glyph glyph-name="uniF1AD" unicode="&#xe9c8;" d="m500 549q-82 0-141-58t-58-141 58-141 141-58 141 58 58 141-58 141-141 58z m0-39q66 0 113-47t47-113-47-113-113-47-113 47-47 113 47 113 113 47z m-19-560h39v121h-39v-121z m0 679h39v121h-39v-121z m-381-259v-39h121v39h-121z m679 0v-39h121v39h-121z m-576-289l28-28 85 84-29 29z m481 482l29-29 84 86-27 27z m-453 84l-28-27 84-86 29 29z m482-481l-29-29 86-84 27 28z" horiz-adv-x="1000" />
<glyph glyph-name="uniF1AF" unicode="&#xe9ca;" d="m660 741q0 29 21 49t50 21 49-21 21-49-21-50-49-21-50 21-21 50z m-41-1q0-46 32-78t79-33 78 33 32 78-32 78-78 32-79-32-32-78z m-217-433l-31 24-76-110q-133-10-176-12-78-5-78-60t92-63q41-4 199-13h2q41 0 66 37l79 113-32 24-80-114q-11-17-31-19-158 9-201 13-55 4-55 22t41 19q104 6 186 12l9 2z m-84 201l129 69 53-12-103-156q-55-94 15-155h2l158-105-64-162q-47-110 6-133 54-22 111 82l109 209v0q10 25 3 52t-28 40l-123 84 131 209q6 8 10 21t2 31-16 28l-78 53q-12 9-28 13l-158 33q-27 6-51-9l-130-102h-2q-57-49-32-88 26-37 84-2z m368-302q23-18 11-43l-107-210q-18-31-32-46t-20-16h-9q-13 14 16 80l78 194-185 123 2-2q-30 25-31 47t21 54l136 203-125 28-142-77h-2q-16-9-29-7-2 11 25 35l-2-2 131 101-2-2q10 6 20 4l158-33q6-2 11-6v-2l79-50q0-4-2-14t-4-14l-151-242z m-6 271l-37-16 35-84q17-37 53-43h1 2q88 2 141 6 86 4 88 47 2 51-76 57l-100 10-60 138-37-17 70-160 125-10q23-2 30-5t7-9q-8-10-49-12-27-2-139-4-13 4-19 18z" horiz-adv-x="1000" />
<glyph glyph-name="uniF1B0" unicode="&#xe9cb;" d="m561 450q-18 4-36-8-7-6-12-13t-6-14 1-17 6-19l76 51q-12 16-29 20z m-138-178q7-6 16-9t18-1 22 10q9 6 13 14t5 15-1 18-6 21l-82-54q8-8 15-14z m-31 76q-5-21 5-43l87 57q-7 19-10 35t-2 29 9 24 22 19 30 13 31 0 28-12 23-22l22 13 11-17-21-16q14-27 8-54t-31-51l-18 27q29 27 14 61l-80-51 7-24q2-7 4-19t0-25-8-25-23-22q-16-12-31-14t-31 1-30 13-25 25l-27-18-12 18 27 18q-17 35-11 67t38 58l20-30q-21-13-26-35z m-374 4q0-199 141-341t341-142 341 142 141 341-141 341-341 141-341-141-141-341z m222-4q0 108 76 184t184 76 184-76 76-184-76-183-184-77-184 77-76 183z m621 256l-7 14q31-41 51-86-2 2-5 4l-120-70q-15 36-40 68z m-761-439l120 69q15-36 40-68l-121-70q-24 33-40 68 0 0 1 1z m800 0q3 3 5 6-18-39-44-75l-121 70q25 32 40 68z m-761 439l121-70q-25-32-40-68l-120 70q-3-4-6-8 17 41 43 78 1-1 2-2z m400 186v-139q-19 2-39 2-20 0-39-2v139q-4 0-10 1 24 2 49 2 20 0 39-1 0-1 0-2z m-375-726l123 71q59-58 133-78v-140q-133 23-232 123-13 12-24 24z m-81 138q-24 70-24 150 0 78 23 146l124-72q-9-36-9-76t9-76z m378-290v138q19-3 39-3 20 0 39 3v-138q-19-2-39-2t-39 2z m119 5v140q74 20 133 78l123-71q-11-12-23-24-100-100-233-123z m337 285l-123 72q9 36 9 76t-9 76l124 72q23-68 23-146 0-80-24-150z m-79 435l-125-72q-59 58-133 78v144q133-23 233-122 13-14 25-28z m-418 150v-144q-74-20-133-78l-125 72q12 14 26 28 99 99 232 122z" horiz-adv-x="1000" />
<glyph glyph-name="uniF1B2" unicode="&#xe9cd;" d="m2 323q20-51 68-82t110-32 109 32 70 82l10 27h-14l-151 430q6 3 14 7 14 6 49 16t57 6q22-4 65-34 34-24 51-34v-791h-129q-30 0-50-21t-21-50v-29h520v29q0 30-21 50t-49 21h-129v771q20 4 56 15 51 14 73 11 13-4 30-12t30-19 25-21 18-17l7-6-155-441h-14l10-27q21-51 70-82t109-32 110 32 68 82l12 27h-17l-173 500q-2-8-5-16-59 60-120 71-33 5-91-11-28-8-43-12v27q0 25-18 42t-43 18-43-18q-17-17-17-42-13 8-25 17-50 35-85 41-60 11-139-31l-11 33-173-500h-17z m53-12h252q-20-25-54-43t-73-18q-80 0-125 61z m638-121h252q-17-25-51-43t-74-18q-82 0-127 61z m-212 600q0 9 5 15t14 6 14-6 6-15v-840h-39v840z m-432-440l131 379 131-379h-262z m640-119l131 379 132-379h-263z m-249-321h121 129q19 0 29-21h-438q10 21 30 21h129z" horiz-adv-x="1000" />
<glyph glyph-name="uniF1B3" unicode="&#xe9ce;" d="m359 651v160h282v-160h-282z m-39-41h360v240h-360v-240z m80-660v160h200v-160h-200z m-41-40h282v241h-282v-241z m-320 40v160h201v-160h-201z m-39-40h279v241h-279v-241z m760 40v160h201v-160h-201z m-39-40h279v241h-279v-241z m-240 219h39v500h-39v-500z m359 0h41v282h-762v-282h41v241h680v-241z" horiz-adv-x="1000" />
<glyph glyph-name="uniF1B4" unicode="&#xe9cf;" d="m352 250h168v20q0 373-231 520 55-14 103-36t103-62 95-95 64-139 26-188v-20h168l-248-328z m-80 40l328-432 328 432h-207q-4 119-39 213t-88 153-116 98-127 59-116 27-83 10h-33v-39q6-2 19-4t50-15 70-32 74-59 71-92 52-135 26-184h-209z" horiz-adv-x="1000" />
<glyph glyph-name="uniF1B5" unicode="&#xe9d0;" d="m205 350l295 387 295-387-295-367z m-51 0l346-432 346 432-346 453z" horiz-adv-x="1000" />
<glyph glyph-name="uniF1B6" unicode="&#xe9d1;" d="m0 170h1000v200h-1000v-200z m39 39v122h721v-122h-721z m555 528l-28 27q-9-10-22-32t-20-58 0-67 45-60 109-37q76-10 105-27t37-57l39 8q-11 55-52 80t-125 35q-55 8-85 29t-35 44 1 48 15 42 16 25z m105 13v-41q22 0 37-2t37-11 32-31 15-57l2-18h18q144 0 82-152l37-16q20 61 20 99t-24 61-47 35-51 12q-7 47-39 77t-59 37-60 7z m160-541h-58v122h58v-122z m41 0v122h61v-122h-61z" horiz-adv-x="1000" />
<glyph glyph-name="uniF1B7" unicode="&#xe9d2;" d="m840 670q47 0 84-35t37-82v-410q0-47-33-80t-80-33h-696q-46 0-80 33t-33 80v406q0 43 34 82t87 39h680z m0-41h-680q-33 0-56-26t-24-54v-19h840v23q0 29-24 53t-56 23z m80-199h-840v-287q0-31 22-52t50-20h696q29 0 50 20t22 52v287z" horiz-adv-x="1000" />
<glyph glyph-name="uniF1B8" unicode="&#xe9d3;" d="m0-9h1000v718h-1000v-718z m301 347l-262-207v437q63-56 262-230z m31-27q35-31 74-64 43-38 94-38t94 38q8 7 52 45 10 9 21 19l294-233v-48h-922v48z m366 27q23 20 48 42 57 50 112 99t94 82q5 4 9 8v-440z m263 282q-365-317-395-342-31-28-66-28t-66 28l-395 342v50h922v-50z" horiz-adv-x="1000" />
<glyph glyph-name="uniF1B9" unicode="&#xe9d4;" d="m531 366l51-90 236 193-3 8z m-31-16q25 0 43-18t18-42-18-42-43-17-43 17-17 42 17 42 43 18z m0 39q-41 0-70-29t-30-70 30-71 70-29 70 29 30 71-30 70-70 29z m383-355l33-22q84 125 84 278 0 207-146 353t-354 147-353-147-147-353q0-153 84-278l33 22q-78 117-78 256 0 191 135 326t326 134 326-134 135-326q0-139-78-256z m98 236v41h-61v-41h61z m-961 41v-41h60v41h-60z m500 459h-39v-61h39v61z m-243-55l-35-19 31-53 34 22z m629-681l20 33-53 31-19-35z m-812 513l-20-35 53-29 20 35z m-20-480l20-33 53 29-20 35z m852 445l-20 35-52-29 19-35z m-168 184l-35 19-30-50 34-22z m-438-727v41h360v-41h-360z m-41-39h442v119h-442v-119z" horiz-adv-x="1000" />
<glyph glyph-name="uniF1BB" unicode="&#xe9d6;" d="m39 350q0 232 114 347t347 114 347-114 114-347-114-347-347-114-347 114-114 347z m-39 0q0-246 127-373t373-127 373 127 127 373-127 373-373 127-373-127-127-373z m578-213v-2l2-2q14-37 61-60 41-22 95-43 36-14 61-32-33-27-107-64-96-49-178-49-94 0-182 37-72 30-127 76 28 18 61 32 56 21 95 43 49 23 63 60v2 2q2 22 2 86v12l-10 6q-6 4-19 29-14 27-18 53v17l-18 2q-11 0-15 37-2 18 6 24l11 6-4 15q-15 74-13 133 2 55 39 88 39 35 115 37 61 0 74-25l6-8 10-2q35-4 55-29 17-26 19-63 0-41-6-72t-13-57l-6-15 13-8q8-6 6-24-4-37-15-37l-18-2v-17q-4-26-17-53l-18-29-12-6v-12q0-64 2-86z m41 6q-2 20-2 70 14 16 26 39 11 28 17 53 16 10 24 22t9 20 4 28q2 28-11 51 5 24 9 51 6 35 6 80 0 49-27 84-24 31-72 45-34 37-104 37-92-2-142-47-51-47-53-117-2-59 13-131-15-25-13-53 6-52 37-70 6-25 19-53 12-23 26-39 0-48-2-70-10-20-41-35-39-20-92-41-59-24-90-51l-15-14 13-15q65-65 158-103t196-38q92 0 195 53 104 51 137 88l12 15-14 14q-33 27-90 51-53 21-94 41-29 15-39 35z" horiz-adv-x="1000" />
<glyph glyph-name="uniF1BD" unicode="&#xe9d8;" d="m672 629q78 0 133-53t54-132q0-61-23-116t-70-104-84-78-100-73-82-57q-18 12-79 54t-99 73-85 80-72 105-24 116q0 78 54 132t133 53q100 0 154-82l18-25 18 25q54 82 154 82z m0 41q-49 0-96-22t-76-58q-68 80-172 80-96 0-162-66t-66-160q0-72 29-138t81-116 98-87 103-74 75-54l14-12 14 12q17 16 75 54t103 74 98 87 81 116 29 138q0 94-66 160t-162 66z" horiz-adv-x="1000" />
<glyph glyph-name="uniF1BE" unicode="&#xe9d9;" d="m1000 274v154l-146 24q-12 41-32 76l84 123-107 107-121-86q-35 20-76 32l-26 146h-154l-24-146q-41-12-76-32l-121 86-109-107 86-121q-22-37-33-78l-145-24v-154l145-26q11-41 33-78l-86-119 107-107 121 84q37-20 78-32l24-146h154l26 146q41 12 76 32l123-86 107 109-86 121q20 35 32 76z m-39 33l-141-23-2-14q-11-47-37-88l-8-12 83-115-61-61-115 83-12-8q-41-26-88-37l-14-4-23-139h-88l-21 139-14 4q-47 11-90 37l-12 6-113-81-60 61 80 113-6 12q-28 43-39 90l-2 14-139 23v88l139 21 2 14q13 47 39 90l6 12-80 113 60 61 115-81 10 6q43 26 90 37l14 4 21 139h88l23-139 14-4q47-11 88-37l12-8 115 83 61-61-83-115 8-12q26-41 37-88l2-14 141-23v-86z m-361-57q-41-41-100-41t-100 41-41 100 41 100 100 41 100-41 41-100-41-100z m-227-27q53-53 127-53t127 53 53 127-53 127-127 53-127-53-53-127 53-127z" horiz-adv-x="1000" />
</font>
</defs>
</svg>
